<svg version="1.1" id="vis_b1" xmlns="http://www.w3.org/2000/svg" xmlns:xlink="http://www.w3.org/1999/xlink" x="0" y="0" viewBox="0 0 1280 1024" style="enable-background:new 0 0 1280 1024" xml:space="preserve"><style>#vis_b1 .st6{fill:#0a9396;fill:var(--c1)}#vis_b1 .st4{fill:#94d2bd;fill:var(--c2, var(--c1))}#vis_b1 .st2{fill:#ae2112;fill:var(--c3, var(--c2, var(--c1)))}#vis_b1 .st7{fill:#ee9b00;fill:var(--c4, var(--c2, var(--c1)))}#vis_b1 .st8{fill:#bb3e04;fill:var(--c6, var(--c4, var(--c2, var(--c1))))}#vis_b1 .st3{fill:#015f73;fill:var(--c7, var(--c4, var(--c2, var(--c1))))}#vis_b1 .st5{fill:#bb3e04;fill:var(--c9, var(--c7, var(--c5, var(--c4, var(--c1)))))}</style><g class="st-shadow" style="-webkit-filter:drop-shadow(0 0 15px rgba(0,0,0,.1));filter:drop-shadow(0 0 15px rgba(0,0,0,.1))"><path class="st1" style="fill: rgb(255, 255, 255); cursor: pointer;" d="M466.81 532.18h654.48v429.24H466.81z"></path><path d="M522.78 588.36h16.17c3.83 0 7.1.71 9.82 2.12 2.72 1.42 4.8 3.5 6.24 6.26 1.44 2.76 2.16 6.16 2.16 10.2v.06c0 4.04-.72 7.49-2.16 10.35-1.44 2.87-3.52 5.05-6.24 6.57-2.72 1.51-5.99 2.27-9.82 2.27h-16.17v-37.83zm14.6 28.99c1.85 0 3.41-.38 4.67-1.14 1.26-.76 2.21-1.9 2.84-3.43.64-1.53.96-3.46.96-5.78v-.05c0-2.11-.34-3.9-1.01-5.35-.67-1.45-1.64-2.55-2.91-3.29-1.27-.74-2.78-1.11-4.55-1.11h-3.49v20.16h3.49zM567.18 625c-2.25-1.21-3.99-2.94-5.2-5.2-1.21-2.26-1.82-4.96-1.82-8.09v-.03c0-3.15.6-5.84 1.81-8.09s2.91-3.97 5.12-5.18c2.21-1.21 4.82-1.81 7.82-1.81 3.01 0 5.61.59 7.82 1.78s3.92 2.87 5.14 5.03c1.21 2.17 1.82 4.72 1.82 7.65v3.04h-24.3v-6.08h19.32l-4.95 5.71v-4.14c0-1.17-.19-2.18-.56-3.01-.38-.84-.9-1.48-1.59-1.93-.68-.45-1.49-.67-2.41-.67-.93 0-1.73.22-2.41.67s-1.21 1.09-1.59 1.93c-.38.84-.56 1.84-.56 3.01v4.19c0 1.17.19 2.18.58 3.01.38.84.93 1.48 1.65 1.93.72.45 1.58.67 2.6.67.94 0 1.73-.15 2.36-.46.63-.31 1.12-.66 1.48-1.06.36-.4.58-.74.67-1.02l.03-.08h9.57l-.08.34c-.21.94-.6 1.97-1.18 3.08s-1.41 2.17-2.49 3.17c-1.08 1.01-2.49 1.83-4.21 2.46-1.72.64-3.84.96-6.36.96-3.13.03-5.82-.57-8.08-1.78zM598.72 625.59c-2.08-.81-3.69-1.94-4.82-3.39-1.14-1.45-1.82-3.14-2.04-5.06l-.03-.24h10.38l.05.21c.21.84.65 1.49 1.32 1.97.67.47 1.61.71 2.82.71.7 0 1.3-.07 1.8-.22s.88-.36 1.15-.64c.27-.28.41-.61.41-1v-.03c0-.52-.25-.95-.73-1.27-.49-.32-1.33-.6-2.52-.83l-5.24-.97c-2.87-.52-5.05-1.53-6.54-3.01-1.49-1.48-2.24-3.35-2.24-5.58v-.03c0-2.01.54-3.73 1.62-5.15 1.08-1.42 2.64-2.52 4.67-3.29s4.44-1.15 7.23-1.15c2.99 0 5.48.45 7.48 1.34 2 .89 3.51 2.07 4.52 3.54 1.01 1.47 1.52 3.08 1.52 4.85v.18h-9.75l-.03-.24c-.07-.68-.42-1.29-1.06-1.83-.64-.54-1.53-.81-2.69-.81-.65 0-1.21.08-1.7.24-.49.16-.87.38-1.14.67-.27.29-.41.64-.41 1.06v.03c0 .51.23.92.69 1.25s1.35.61 2.66.85l5.24.97c3.13.58 5.42 1.5 6.87 2.78 1.45 1.28 2.18 3.01 2.18 5.19v.03c0 2.08-.59 3.88-1.76 5.39-1.17 1.51-2.8 2.68-4.9 3.5-2.1.82-4.54 1.23-7.34 1.23-3.04-.03-5.6-.43-7.67-1.25zM623.25 597.25H634v28.94h-10.75v-28.94zm1.59-4.12c-1.02-1.01-1.53-2.21-1.53-3.59 0-1.4.51-2.6 1.53-3.6s2.28-1.51 3.79-1.51 2.77.5 3.79 1.51c1.02 1 1.53 2.21 1.53 3.6 0 1.38-.51 2.58-1.53 3.59-1.02 1.01-2.28 1.52-3.79 1.52s-2.77-.5-3.79-1.52zM645.16 634.83c-2.15-.77-3.84-1.82-5.07-3.14-1.23-1.33-1.94-2.82-2.14-4.48l-.03-.24h10.33l.05.13c.17.4.63.84 1.38 1.31.74.47 1.79.71 3.13.71 1.55 0 2.71-.33 3.46-.98.75-.66 1.13-1.49 1.13-2.5v-5.14h-.21c-.44.96-1.07 1.79-1.9 2.48s-1.82 1.22-2.96 1.6c-1.14.38-2.42.56-3.81.56-2.39 0-4.43-.54-6.11-1.61-1.68-1.08-2.95-2.64-3.81-4.71-.87-2.06-1.3-4.58-1.3-7.55v-.03c0-3.16.44-5.83 1.32-8 .88-2.17 2.17-3.81 3.85-4.94s3.74-1.69 6.17-1.69c1.36 0 2.6.22 3.72.67s2.08 1.09 2.9 1.93 1.45 1.85 1.9 3.04h.24v-5.01h10.75v28.12c0 2.06-.62 3.89-1.87 5.49s-3.03 2.85-5.33 3.76c-2.31.91-5.04 1.36-8.2 1.36-2.91.02-5.44-.37-7.59-1.14zm10.12-17.62c.7-.5 1.24-1.22 1.61-2.16.38-.94.56-2.08.56-3.41v-.03c0-1.34-.19-2.49-.58-3.43-.38-.94-.92-1.66-1.61-2.16s-1.51-.75-2.45-.75c-.93 0-1.73.25-2.42.75s-1.23 1.21-1.61 2.15-.58 2.08-.58 3.42v.03c0 1.31.19 2.44.56 3.39.38.95.91 1.68 1.61 2.19.7.51 1.51.76 2.44.76.95-.01 1.77-.25 2.47-.75zM672.24 597.25h10.75v5.37h.21c.72-1.96 1.81-3.45 3.28-4.47 1.47-1.02 3.29-1.53 5.48-1.53 3.18 0 5.63.96 7.35 2.88 1.72 1.92 2.58 4.62 2.58 8.1v18.58h-10.75v-16.22c0-1.45-.34-2.6-1.02-3.43-.68-.84-1.69-1.26-3.04-1.26-.84 0-1.56.2-2.18.6-.61.4-1.08.95-1.42 1.65-.33.7-.5 1.5-.5 2.41v16.25h-10.75v-28.93zM529.56 680.61c-2.39-.91-4.25-2.23-5.58-3.97-1.34-1.74-2.08-3.85-2.21-6.33l-.03-.5h10.22l.05.24c.16.68.52 1.28 1.1 1.78.58.51 1.3.9 2.18 1.19.87.29 1.83.43 2.88.43 1.12 0 2.08-.14 2.87-.42.8-.28 1.41-.66 1.85-1.15.44-.49.66-1.05.66-1.68v-.03c0-.89-.43-1.56-1.28-2.02-.86-.45-2.33-.87-4.43-1.26l-3.8-.68c-3.76-.66-6.64-1.93-8.64-3.8-2-1.87-3-4.27-3-7.21v-.03c0-2.53.67-4.73 2.01-6.58 1.34-1.85 3.18-3.28 5.52-4.3 2.34-1.01 5.01-1.52 7.99-1.52 3.37 0 6.21.47 8.52 1.42s4.07 2.29 5.29 4.02c1.22 1.74 1.89 3.79 1.99 6.15l.03.58h-10.22l-.03-.26c-.07-.7-.35-1.3-.83-1.8s-1.12-.89-1.91-1.17c-.8-.28-1.7-.42-2.71-.42s-1.87.14-2.56.41c-.69.27-1.21.64-1.56 1.1-.35.46-.52.98-.52 1.56v.03c0 .86.43 1.52 1.28 1.98.86.46 2.23.87 4.12 1.22l3.8.68c4.05.73 7.06 1.97 9.02 3.7 1.96 1.73 2.94 4.13 2.94 7.21v.03c0 2.6-.65 4.86-1.95 6.78-1.3 1.91-3.18 3.39-5.65 4.43-2.46 1.04-5.44 1.56-8.91 1.56-3.29-.01-6.12-.47-8.5-1.37zM563.32 679.78c-1.76-1.42-2.63-3.84-2.63-7.25v-12.42h-3.83v-7.76h3.83v-6.34h10.75v6.34h5.09v7.76h-5.09v10.77c0 1.17.27 2.01.8 2.52.53.51 1.35.76 2.45.76.4 0 .74-.01 1.01-.04l.83-.09v7.5c-.58.1-1.26.2-2.06.27-.8.08-1.76.12-2.9.12-3.75 0-6.5-.72-8.25-2.14zM584.46 680.62c-1.49-.87-2.61-2.12-3.38-3.76-.77-1.64-1.15-3.62-1.15-5.92v-18.58h10.75v16.22c0 1.45.34 2.59 1.02 3.43s1.69 1.26 3.04 1.26c.86 0 1.59-.2 2.19-.6.6-.4 1.07-.96 1.4-1.66.33-.71.5-1.51.5-2.4v-16.25h10.75v28.94h-10.75v-5.37h-.21c-.7 1.96-1.79 3.45-3.26 4.47-1.48 1.02-3.31 1.53-5.49 1.53-2.13-.01-3.93-.45-5.41-1.31zM618.05 680.15c-1.69-1.18-2.97-2.89-3.85-5.14s-1.32-4.98-1.32-8.19v-.03c0-3.23.44-5.97 1.32-8.22.88-2.25 2.17-3.95 3.85-5.11 1.69-1.16 3.74-1.74 6.17-1.74 2.08 0 3.86.52 5.35 1.55 1.48 1.03 2.57 2.46 3.25 4.3h.21v-14.1h10.75v37.82h-10.75v-4.95h-.21c-.65 1.75-1.73 3.12-3.24 4.1-1.51.99-3.32 1.48-5.41 1.48-2.4 0-4.44-.59-6.12-1.77zm12.8-7.64c.7-.51 1.24-1.24 1.61-2.2s.56-2.11.56-3.46v-.03c0-1.36-.19-2.53-.58-3.49-.38-.96-.92-1.69-1.61-2.2-.69-.51-1.51-.76-2.45-.76-.93 0-1.73.25-2.42.76s-1.23 1.24-1.61 2.2c-.38.96-.58 2.11-.58 3.46v.03c0 1.33.19 2.47.56 3.43.38.96.91 1.7 1.61 2.23.7.52 1.51.79 2.44.79.95 0 1.77-.26 2.47-.76zM647.81 652.35h10.75v28.94h-10.75v-28.94zm1.59-4.12c-1.02-1.01-1.53-2.21-1.53-3.59 0-1.4.51-2.6 1.53-3.6s2.28-1.51 3.79-1.51 2.77.5 3.79 1.51 1.53 2.21 1.53 3.6c0 1.38-.51 2.58-1.53 3.59s-2.29 1.52-3.79 1.52-2.77-.5-3.79-1.52zM668.91 680.15c-2.27-1.18-4.01-2.89-5.23-5.14s-1.82-4.97-1.82-8.17v-.05c0-3.15.62-5.85 1.87-8.1s3.01-3.98 5.28-5.18c2.27-1.2 4.95-1.79 8.05-1.79 3.11 0 5.8.59 8.07 1.78 2.27 1.19 4.03 2.91 5.28 5.15s1.87 4.96 1.87 8.14v.05c0 3.21-.61 5.95-1.83 8.19-1.22 2.25-2.97 3.95-5.24 5.12s-4.99 1.76-8.15 1.76c-3.16.01-5.88-.58-8.15-1.76zm10.48-7.03c.65-.55 1.14-1.35 1.48-2.41s.51-2.35.51-3.87v-.05c0-1.5-.18-2.78-.54-3.84s-.86-1.87-1.51-2.42c-.65-.56-1.41-.84-2.28-.84-.87 0-1.63.28-2.28.84-.65.56-1.14 1.37-1.49 2.42-.35 1.06-.52 2.34-.52 3.84v.05c0 1.52.17 2.81.51 3.87s.83 1.86 1.48 2.41 1.42.83 2.33.83c.9 0 1.67-.28 2.31-.83z" style="cursor: pointer;"></path><path class="st2" d="M523.34 828.1h-2.83l3.68-10.91h3.51l3.68 10.91h-2.83l-2.56-8.16h-.09l-2.56 8.16zm-.37-4.29h5.92v2h-5.92v-2zM534.06 828.1v-10.91h4.51c.82 0 1.52.15 2.12.44s1.05.71 1.38 1.26c.32.55.48 1.19.48 1.94 0 .76-.17 1.4-.5 1.93-.33.53-.8.93-1.41 1.2-.61.27-1.33.41-2.16.41h-2.85v-2.08H538c.4 0 .73-.05 1-.16s.47-.26.61-.48c.14-.21.21-.49.21-.83 0-.34-.07-.62-.21-.84-.14-.22-.34-.39-.61-.5-.27-.11-.6-.17-1-.17h-1.3v8.78h-2.64zm6.14-4.98 2.72 4.99h-2.88l-2.66-4.99h2.82zM545.13 819.34v-2.14h9.22v2.14h-3.31v8.77h-2.6v-8.77h-3.31zM565.91 828.1h-4.03v-10.91h4.03c1.11 0 2.07.22 2.87.65.8.44 1.42 1.06 1.86 1.88.44.82.66 1.79.66 2.92 0 1.14-.22 2.11-.65 2.93-.44.82-1.06 1.44-1.86 1.88-.82.44-1.78.65-2.88.65zm-1.4-2.24h1.29c.61 0 1.13-.1 1.55-.31s.75-.55.96-1.02c.22-.47.33-1.1.33-1.88s-.11-1.41-.33-1.88c-.22-.47-.54-.8-.97-1.01s-.95-.31-1.58-.31h-1.26v6.41zM576.96 817.19v10.91h-2.64v-10.91h2.64zM580.11 828.1v-10.91h4.51c.82 0 1.52.15 2.12.44s1.05.71 1.38 1.26c.32.55.48 1.19.48 1.94 0 .76-.17 1.4-.5 1.93-.33.53-.8.93-1.41 1.2-.61.27-1.33.41-2.16.41h-2.85v-2.08h2.36c.4 0 .73-.05 1-.16s.47-.26.61-.48c.14-.21.21-.49.21-.83 0-.34-.07-.62-.21-.84-.14-.22-.34-.39-.61-.5-.27-.11-.6-.17-1-.17h-1.3v8.78h-2.63zm6.14-4.98 2.72 4.99h-2.88l-2.66-4.99h2.82zM591.54 828.1v-10.91h7.61v2.14h-4.97v2.24h4.58v2.15h-4.58v2.24h4.97v2.14h-7.61zM612.2 821.15h-2.66c-.04-.27-.11-.52-.22-.74-.11-.22-.26-.41-.44-.56-.18-.16-.4-.28-.64-.36-.25-.08-.52-.12-.82-.12-.53 0-.98.13-1.37.39-.38.26-.67.63-.88 1.12s-.31 1.08-.31 1.78c0 .72.1 1.33.31 1.82s.5.86.88 1.1c.38.25.83.37 1.35.37.29 0 .56-.04.8-.11s.45-.18.63-.33c.18-.14.33-.32.45-.53.12-.21.2-.44.25-.71l2.66.02a4.346 4.346 0 0 1-1.38 2.71c-.4.38-.9.69-1.48.92-.58.23-1.25.34-1.99.34-.99 0-1.87-.22-2.65-.65-.78-.44-1.39-1.07-1.85-1.9-.45-.83-.68-1.85-.68-3.05 0-1.2.23-2.22.69-3.05.46-.83 1.08-1.47 1.86-1.9s1.66-.65 2.63-.65c.66 0 1.27.09 1.83.27.56.18 1.05.45 1.48.8.43.35.77.78 1.04 1.29.28.49.45 1.07.51 1.73zM614.85 819.34v-2.14h9.22v2.14h-3.31v8.77h-2.6v-8.77h-3.31zM636.66 822.65c0 1.2-.23 2.22-.69 3.05-.46.83-1.09 1.47-1.87 1.9-.79.43-1.67.65-2.64.65-.98 0-1.86-.22-2.65-.66s-1.41-1.07-1.87-1.9c-.46-.83-.69-1.85-.69-3.04 0-1.2.23-2.22.69-3.05.46-.83 1.08-1.47 1.87-1.9s1.67-.65 2.65-.65 1.86.22 2.64.65 1.41 1.07 1.87 1.9c.46.83.69 1.85.69 3.05zm-2.7 0c0-.71-.1-1.31-.3-1.8s-.49-.86-.86-1.11c-.38-.25-.83-.38-1.35-.38-.52 0-.97.13-1.35.38s-.67.62-.87 1.11-.3 1.09-.3 1.8.1 1.31.3 1.8.49.86.87 1.11.83.38 1.35.38c.53 0 .98-.13 1.35-.38.37-.25.66-.62.86-1.11s.3-1.09.3-1.8zM639.69 828.1v-10.91h4.51c.82 0 1.52.15 2.12.44s1.05.71 1.38 1.26c.32.55.49 1.19.49 1.94 0 .76-.17 1.4-.5 1.93-.33.53-.8.93-1.41 1.2-.61.27-1.33.41-2.16.41h-2.85v-2.08h2.36c.4 0 .73-.05 1-.16.27-.1.47-.26.61-.48s.21-.49.21-.83c0-.34-.07-.62-.21-.84s-.34-.39-.61-.5c-.27-.11-.6-.17-1-.17h-1.3v8.78h-2.64zm6.14-4.98 2.72 4.99h-2.88l-2.66-4.99h2.82z" style="cursor: pointer;"></path><path d="M527.35 775.98h5.75v4.94h-1.98L527 796.7h-6.41l6.76-20.72zm-1.24 12.31h10.14l1.26 4.29h-12.67l1.27-4.29zm5.12-7.37v-4.94H535l6.77 20.73h-6.41l-4.13-15.79zM543.3 780.85h5.89v2.84h.12c.2-1.03.6-1.82 1.2-2.37s1.37-.82 2.32-.82c.25 0 .49.02.73.06.24.04.47.1.69.17v4.96c-.25-.1-.52-.19-.81-.24-.29-.06-.59-.09-.9-.09-.74 0-1.36.12-1.85.37-.5.25-.87.62-1.12 1.11-.25.49-.37 1.11-.37 1.85v8.01h-5.89v-15.85zM558.93 795.88c-.96-.78-1.44-2.1-1.44-3.97v-6.81h-2.1v-4.25h2.1v-3.48h5.89v3.48h2.79v4.25h-2.79v5.9c0 .64.15 1.1.44 1.38.29.28.74.42 1.34.42a6.877 6.877 0 0 0 1-.07v4.11c-.32.06-.69.11-1.13.15s-.96.06-1.59.06c-2.04 0-3.54-.39-4.51-1.17zM568.18 775.98h5.89v7.81h.12c.39-1.07.99-1.89 1.8-2.45.8-.56 1.8-.84 3-.84 1.17 0 2.16.24 2.97.71s1.42 1.16 1.85 2.05.63 1.98.63 3.25v10.18h-5.89v-8.89c0-.79-.19-1.42-.56-1.88-.37-.46-.93-.69-1.67-.69-.46 0-.86.11-1.19.33-.34.22-.59.52-.78.9-.18.38-.27.82-.27 1.32v8.91h-5.89v-20.71zM589.03 796.34c-.81-.47-1.43-1.16-1.85-2.06-.42-.9-.63-1.98-.63-3.25v-10.18h5.89v8.89c0 .79.19 1.42.56 1.88.37.46.93.69 1.67.69.47 0 .87-.11 1.2-.33.33-.22.59-.52.77-.91.18-.39.27-.83.27-1.31v-8.91h5.89v15.86h-5.89v-2.94h-.11c-.38 1.07-.98 1.89-1.79 2.45-.81.56-1.81.84-3.01.84-1.17-.01-2.15-.25-2.97-.72zM605.01 780.85h5.89v2.84h.12c.2-1.03.6-1.82 1.2-2.37s1.37-.82 2.32-.82c.25 0 .49.02.73.06.24.04.47.1.69.17v4.96c-.25-.1-.52-.19-.81-.24-.29-.06-.59-.09-.9-.09-.74 0-1.36.12-1.85.37-.5.25-.87.62-1.12 1.11-.25.49-.37 1.11-.37 1.85v8.01h-5.89v-15.85zM623.28 775.98h6.09v20.73h-6.09v-20.73zm3.06 10.57h4.75c1.01 0 1.79-.25 2.36-.75s.85-1.25.85-2.23v-.03c0-1-.28-1.74-.85-2.23s-1.36-.74-2.36-.74h-4.75v-4.58h6.21c1.62 0 3.02.31 4.2.93 1.18.62 2.1 1.5 2.74 2.63s.97 2.46.97 3.99v.03c0 1.53-.32 2.86-.97 3.98s-1.56 1.98-2.74 2.59c-1.18.61-2.58.91-4.2.91h-6.21v-4.5zM645.46 796.08a6.678 6.678 0 0 1-2.87-2.82c-.67-1.23-1-2.72-1-4.47v-.03c0-1.72.34-3.2 1.03-4.44s1.65-2.18 2.89-2.84c1.25-.66 2.71-.98 4.41-.98 1.7 0 3.18.33 4.42.98 1.24.65 2.21 1.59 2.89 2.82.68 1.23 1.03 2.72 1.03 4.46v.03c0 1.76-.33 3.26-1 4.49a6.71 6.71 0 0 1-2.87 2.81c-1.25.64-2.73.96-4.47.96-1.73 0-3.22-.32-4.46-.97zm5.74-3.85c.35-.3.62-.74.81-1.32.19-.58.28-1.29.28-2.12v-.03c0-.82-.1-1.52-.29-2.1-.2-.58-.47-1.02-.83-1.33s-.77-.46-1.25-.46-.9.15-1.25.46-.63.75-.82 1.33c-.19.58-.29 1.28-.29 2.1v.03c0 .83.09 1.54.28 2.12s.46 1.02.81 1.32.78.45 1.28.45c.49 0 .92-.15 1.27-.45zM658.81 780.85h5.96l1.68 10.7h.12l2.08-10.7h5.62l2.11 10.7h.12l1.68-10.7H684l-4 15.85h-6.39l-2.21-10.21h-.12l-2.17 10.21h-6.28l-4.02-15.85zM688.25 796.06a6.755 6.755 0 0 1-2.85-2.85c-.67-1.24-1-2.72-1-4.43v-.01c0-1.72.33-3.2.99-4.43.66-1.23 1.6-2.18 2.81-2.84 1.21-.66 2.64-.99 4.29-.99s3.08.33 4.29.98a6.94 6.94 0 0 1 2.82 2.76c.67 1.19 1 2.58 1 4.19v1.67h-13.32v-3.33h10.59l-2.71 3.13v-2.27c0-.64-.1-1.19-.31-1.65-.21-.46-.5-.81-.87-1.06s-.81-.37-1.32-.37-.95.12-1.32.37c-.37.24-.66.6-.87 1.06-.21.46-.31 1.01-.31 1.65v2.3c0 .64.11 1.19.32 1.65.21.46.51.81.9 1.06s.87.37 1.42.37c.52 0 .95-.08 1.29-.25.34-.17.62-.36.81-.58.2-.22.32-.41.37-.56l.01-.04h5.24l-.04.19a7.08 7.08 0 0 1-.65 1.69c-.32.61-.77 1.19-1.37 1.74s-1.36 1-2.3 1.35c-.94.35-2.1.52-3.48.52-1.72-.03-3.2-.36-4.43-1.02zM702.45 775.98h5.89v20.73h-5.89v-20.73zM710.7 775.98h5.89v20.73h-5.89v-20.73zM525 875.17v10.18h-1.54v-8.64h-.06l-2.44 1.59v-1.47l2.54-1.66h1.5zM530.56 885.35v-1.11l3.45-3.57c.37-.39.67-.73.91-1.02.24-.29.42-.57.54-.84.12-.26.18-.55.18-.84 0-.34-.08-.63-.24-.88-.16-.25-.38-.44-.65-.57-.28-.13-.58-.2-.93-.2-.36 0-.68.07-.95.22-.27.15-.48.36-.63.63-.15.27-.22.59-.22.96h-1.47c0-.62.14-1.16.43-1.63s.68-.82 1.17-1.08 1.06-.39 1.7-.39c.64 0 1.2.13 1.69.38s.87.6 1.15 1.03c.27.44.41.93.41 1.47 0 .38-.07.75-.21 1.11-.14.36-.39.76-.73 1.21-.35.44-.83.98-1.45 1.61l-2.02 2.12v.07h4.58v1.32h-6.71zM545.49 885.49c-.68 0-1.29-.12-1.83-.35-.54-.24-.96-.56-1.27-.98-.31-.42-.48-.91-.5-1.46h1.56c.02.3.12.56.31.78.18.22.43.39.72.51s.63.18.99.18c.4 0 .76-.07 1.07-.21.31-.14.55-.33.73-.58.18-.25.26-.54.26-.87 0-.34-.09-.64-.26-.9s-.43-.46-.76-.61c-.33-.15-.73-.22-1.21-.22h-.86v-1.25h.86c.38 0 .71-.07 1-.2.29-.14.51-.33.67-.57.16-.24.24-.53.24-.86 0-.31-.07-.59-.21-.82-.14-.23-.34-.42-.6-.55-.26-.13-.56-.2-.91-.2-.33 0-.64.06-.93.18-.29.12-.52.29-.7.52-.18.22-.28.49-.29.8h-1.49c.02-.55.18-1.03.49-1.45.31-.42.72-.74 1.23-.98s1.08-.35 1.7-.35c.65 0 1.22.13 1.69.38.48.25.84.59 1.1 1.01s.39.88.39 1.38c0 .57-.15 1.05-.47 1.45-.32.4-.75.66-1.28.8v.08c.68.1 1.2.37 1.57.8.37.43.56.97.55 1.62 0 .56-.15 1.06-.46 1.51-.31.44-.74.79-1.28 1.05-.51.23-1.13.36-1.82.36zM558.28 879.61v1.29h-4.51v-1.29h4.51zM562.83 883.36v-1.24l4.4-6.95h.98V877h-.62l-3.15 4.98v.08h6.03v1.3h-7.64zm4.83 1.99v-2.37l.01-.57v-7.25h1.46v10.18h-1.47zM578.36 885.49c-.62 0-1.18-.12-1.68-.36s-.89-.57-1.19-.99-.45-.9-.47-1.44h1.49c.04.44.23.8.58 1.08s.77.42 1.26.42c.39 0 .74-.09 1.04-.27.3-.18.54-.43.72-.75s.26-.68.26-1.09c0-.41-.09-.78-.27-1.11-.18-.32-.43-.58-.74-.77-.31-.19-.67-.28-1.08-.28-.31 0-.62.05-.93.16-.31.11-.56.25-.76.42l-1.41-.21.57-5.13h5.6v1.32h-4.32l-.32 2.85h.06c.2-.19.46-.35.79-.48s.68-.19 1.06-.19c.62 0 1.17.15 1.66.44.49.29.87.7 1.15 1.21.28.51.42 1.09.42 1.75 0 .66-.15 1.25-.44 1.76-.3.52-.71.92-1.24 1.22s-1.13.44-1.81.44zM590.04 885.49c-.45-.01-.9-.09-1.34-.25-.44-.16-.84-.42-1.2-.8-.36-.37-.64-.87-.86-1.5-.21-.63-.32-1.41-.32-2.35 0-.89.09-1.68.27-2.37s.43-1.27.77-1.75c.33-.48.74-.84 1.21-1.09.47-.25 1.01-.37 1.6-.37.61 0 1.15.12 1.62.36.47.24.85.57 1.15.99.29.42.48.9.56 1.44h-1.52c-.1-.42-.31-.77-.61-1.04s-.7-.4-1.19-.4c-.75 0-1.33.32-1.74.97-.42.65-.63 1.55-.63 2.71h.07c.18-.29.39-.53.65-.74s.55-.36.87-.47c.32-.11.66-.17 1.01-.17.59 0 1.12.14 1.6.43s.86.68 1.15 1.19c.29.5.43 1.08.43 1.73s-.15 1.24-.44 1.76c-.29.53-.71.94-1.24 1.25s-1.17.47-1.87.47zm-.01-1.3c.39 0 .74-.1 1.05-.29s.55-.45.73-.78c.18-.32.27-.69.27-1.09 0-.39-.09-.75-.26-1.07s-.41-.58-.72-.77-.65-.28-1.04-.28c-.29 0-.57.06-.82.17-.25.11-.47.27-.66.47-.19.2-.34.43-.44.68-.11.26-.16.53-.16.81 0 .38.09.73.27 1.06.18.33.42.59.73.78s.66.31 1.05.31zM602.7 879.61v1.29h-4.51v-1.29h4.51zM607.46 885.35l4.44-8.79v-.07h-5.14v-1.32h6.73v1.36l-4.43 8.82h-1.6zM621.26 885.49c-.71 0-1.34-.12-1.89-.37-.55-.25-.97-.58-1.28-1.01-.31-.43-.46-.92-.46-1.47a2.633 2.633 0 0 1 1.01-2.1c.31-.24.66-.4 1.04-.46v-.06c-.51-.12-.91-.39-1.22-.82-.3-.42-.46-.9-.45-1.45 0-.52.13-.99.42-1.39s.67-.73 1.16-.97c.49-.24 1.05-.35 1.68-.35.62 0 1.17.12 1.66.36s.87.56 1.16.97.42.87.43 1.39c0 .55-.16 1.03-.47 1.45-.31.42-.71.69-1.2.82v.06c.38.07.73.22 1.03.46.31.24.55.55.74.91s.28.76.28 1.19c0 .55-.16 1.04-.47 1.47-.31.43-.73.77-1.28 1.01-.56.23-1.18.36-1.89.36zm0-1.26c.42 0 .79-.07 1.09-.21.31-.14.55-.34.72-.59.17-.25.25-.55.26-.89 0-.36-.1-.67-.28-.94-.18-.27-.42-.49-.73-.64-.31-.16-.66-.23-1.06-.23s-.76.08-1.07.23c-.31.16-.56.37-.74.64-.18.27-.27.58-.26.94 0 .34.08.64.25.89.17.25.41.45.72.59s.68.21 1.1.21zm0-4.74c.34 0 .64-.07.9-.2.26-.14.47-.32.62-.57s.23-.53.23-.85c0-.32-.08-.6-.23-.83s-.35-.42-.61-.55-.56-.2-.91-.2-.66.07-.92.2-.47.32-.61.55c-.15.24-.22.52-.21.83 0 .33.07.61.22.85s.36.43.62.57c.25.13.56.2.9.2zM632.84 875.03c.45 0 .9.09 1.34.25.44.16.84.43 1.2.79.36.37.64.86.86 1.49s.32 1.4.33 2.33c0 .89-.09 1.68-.27 2.38-.18.69-.44 1.28-.77 1.76s-.74.84-1.21 1.09c-.47.25-1.01.37-1.6.37-.61 0-1.15-.12-1.62-.36s-.85-.57-1.15-.99a3.27 3.27 0 0 1-.55-1.46h1.52c.1.44.3.79.61 1.06s.7.41 1.19.41c.75 0 1.33-.33 1.75-.98.42-.65.63-1.56.63-2.73h-.08c-.17.29-.39.53-.64.74-.26.21-.54.36-.86.48-.32.11-.66.17-1.02.17-.59 0-1.12-.14-1.6-.43s-.86-.68-1.15-1.19-.43-1.08-.43-1.73c0-.64.15-1.23.44-1.75.29-.52.7-.94 1.23-1.25.52-.31 1.14-.46 1.85-.45zm.01 1.29c-.39 0-.74.1-1.05.29-.31.19-.55.45-.73.77-.18.32-.27.68-.27 1.08s.09.75.26 1.07c.17.32.41.57.72.76s.65.28 1.04.28c.29 0 .56-.06.82-.17.25-.11.47-.27.66-.47.19-.2.34-.43.44-.68.11-.25.16-.52.16-.8 0-.38-.09-.72-.27-1.04-.18-.32-.42-.58-.73-.78-.31-.21-.66-.31-1.05-.31zM644.7 885.52c-.79 0-1.46-.21-2.01-.62s-.98-1.01-1.28-1.79-.44-1.73-.44-2.84c0-1.1.15-2.05.44-2.83.3-.78.72-1.38 1.28-1.79.56-.41 1.23-.62 2.01-.62.78 0 1.45.21 2 .62.56.41.98 1.01 1.28 1.79.3.78.44 1.72.44 2.83s-.15 2.06-.44 2.84c-.29.78-.72 1.38-1.28 1.79-.55.41-1.22.62-2 .62zm0-1.33c.69 0 1.23-.34 1.62-1.01s.58-1.65.58-2.92c0-.84-.09-1.56-.27-2.15-.18-.58-.43-1.03-.76-1.33-.33-.3-.72-.46-1.18-.46-.69 0-1.22.34-1.62 1.01-.39.68-.59 1.65-.59 2.92 0 .85.09 1.57.27 2.15.18.58.43 1.03.76 1.33s.73.46 1.19.46zM523.38 902.32c-.48 0-.92-.09-1.31-.27s-.7-.44-.93-.79-.34-.77-.34-1.27c0-.43.08-.79.25-1.06.17-.28.39-.5.67-.66s.6-.29.94-.37c.35-.08.7-.15 1.06-.19.46-.05.83-.1 1.11-.13s.49-.09.62-.17c.13-.08.19-.21.19-.39v-.03c0-.43-.12-.77-.37-1.01s-.61-.36-1.09-.36c-.5 0-.89.11-1.18.33s-.48.46-.59.73l-1.4-.32c.17-.46.41-.84.73-1.13.32-.29.69-.5 1.11-.63s.86-.2 1.32-.2c.31 0 .63.04.97.11.34.07.66.2.96.39.3.19.55.46.74.81s.29.8.29 1.36v5.07h-1.45v-1.04h-.06c-.1.19-.24.38-.43.57-.19.19-.44.34-.74.46-.29.12-.65.19-1.07.19zm.32-1.2c.41 0 .76-.08 1.06-.24.29-.16.52-.38.67-.64.15-.26.23-.55.23-.85v-.98c-.05.05-.15.1-.31.15s-.32.08-.51.11-.38.06-.56.08c-.18.03-.33.05-.46.06-.29.04-.55.1-.79.18-.24.09-.43.21-.57.37-.14.16-.21.37-.21.64 0 .37.14.65.41.83.28.2.62.29 1.04.29zM531.93 902.15v-7.64h1.44v1.21h.08c.14-.41.39-.74.74-.97.35-.24.75-.36 1.2-.36a4.103 4.103 0 0 1 .63.04v1.42a3.44 3.44 0 0 0-.78-.09c-.35 0-.66.07-.94.22a1.662 1.662 0 0 0-.89 1.5v4.66h-1.48zM544.12 894.51v1.19h-4.17v-1.19h4.17zm-3.05-1.83h1.49v7.22c0 .29.04.5.13.65.09.14.2.24.34.29a1.416 1.416 0 0 0 .76.05c.09-.02.16-.03.21-.04l.27 1.23c-.09.03-.21.07-.37.1-.16.04-.36.05-.6.06-.39.01-.76-.06-1.09-.21-.34-.15-.61-.37-.82-.68-.21-.31-.31-.69-.31-1.15v-7.52zM550.2 897.61v4.53h-1.49v-10.18h1.47v3.79h.09c.18-.41.45-.74.82-.98.37-.24.85-.36 1.44-.36.52 0 .98.11 1.38.32.39.22.7.54.91.96.22.43.33.96.33 1.59v4.86h-1.49v-4.68c0-.56-.14-1-.43-1.3-.29-.31-.69-.46-1.2-.46-.35 0-.67.07-.94.22-.28.15-.49.37-.65.65-.16.29-.24.64-.24 1.04zM564.78 898.98v-4.47h1.49v7.64h-1.46v-1.32h-.08c-.18.41-.46.75-.84 1.02-.39.27-.87.41-1.44.41-.49 0-.92-.11-1.3-.33-.38-.22-.67-.54-.89-.97s-.32-.96-.32-1.59v-4.86h1.49v4.68c0 .52.14.93.43 1.24.29.31.66.46 1.12.46.28 0 .56-.07.83-.21.28-.14.51-.35.69-.63.19-.28.29-.64.28-1.07zM571.07 902.15v-7.64h1.44v1.21h.08c.14-.41.39-.74.74-.97.35-.24.75-.36 1.2-.36a4.103 4.103 0 0 1 .63.04v1.42a3.44 3.44 0 0 0-.78-.09c-.35 0-.66.07-.94.22a1.662 1.662 0 0 0-.89 1.5v4.66h-1.48zM585.38 904.92c-1.03 0-1.94-.14-2.73-.42-.79-.28-1.46-.69-2.01-1.23-.54-.54-.96-1.21-1.24-1.99s-.42-1.68-.42-2.69c0-.98.14-1.86.43-2.65.29-.78.7-1.45 1.25-2 .54-.55 1.21-.97 1.99-1.26.78-.29 1.67-.44 2.66-.44.95 0 1.79.15 2.52.45.73.3 1.34.71 1.83 1.23.5.52.87 1.12 1.12 1.79s.38 1.38.38 2.13c0 .52-.03 1.04-.1 1.53-.07.5-.19.95-.37 1.35-.18.4-.43.72-.77.96s-.76.37-1.29.38c-.28.01-.56-.02-.82-.1-.27-.08-.49-.2-.68-.37-.19-.17-.3-.39-.34-.65h-.06c-.08.2-.21.38-.4.54-.19.17-.42.3-.71.4-.29.1-.62.14-1 .12a2.77 2.77 0 0 1-1.13-.28 2.57 2.57 0 0 1-.86-.72c-.24-.3-.42-.67-.54-1.08-.13-.42-.19-.88-.19-1.39 0-.49.07-.93.21-1.32s.34-.73.58-1.01c.25-.28.53-.51.85-.67.32-.17.66-.27 1.02-.31.35-.04.67-.03.96.03.29.06.53.15.73.27.19.12.32.26.37.4h.06v-.56h1.22v4.61c0 .26.07.48.21.67.14.18.33.27.59.27.3 0 .54-.11.71-.33.17-.22.29-.56.36-1.02.07-.46.11-1.05.11-1.77 0-.5-.07-.98-.2-1.42-.13-.45-.33-.85-.59-1.21-.26-.36-.58-.67-.96-.94s-.81-.46-1.29-.61c-.48-.14-1.02-.21-1.6-.21-.79 0-1.5.12-2.11.37-.62.24-1.14.59-1.56 1.05-.42.46-.74 1-.96 1.64-.22.64-.33 1.35-.33 2.15 0 .83.11 1.56.33 2.2.22.64.55 1.18.98 1.61s.97.77 1.61 1c.64.23 1.38.34 2.21.34.37 0 .74-.03 1.09-.1s.68-.14.96-.22.49-.15.63-.2l.35 1.09c-.21.1-.48.19-.82.28s-.71.17-1.1.23c-.37.05-.76.08-1.14.08zm-.46-4.14c.43 0 .78-.09 1.04-.26s.45-.43.57-.77c.12-.34.18-.77.18-1.29 0-.5-.07-.91-.19-1.21-.12-.3-.32-.52-.58-.65s-.59-.2-1-.2c-.37 0-.69.09-.96.27-.26.18-.46.43-.6.74-.14.31-.21.66-.21 1.04 0 .4.06.78.17 1.13.11.35.29.64.55.86.25.23.59.34 1.03.34zM598.45 902.3c-.62 0-1.17-.16-1.65-.47-.48-.32-.86-.77-1.13-1.36-.27-.59-.41-1.29-.41-2.12 0-.83.14-1.53.42-2.12.28-.59.66-1.04 1.14-1.35s1.03-.47 1.65-.47c.47 0 .86.08 1.15.24.29.16.52.34.68.55s.29.39.38.55h.09v-3.78h1.49v10.18h-1.45v-1.19h-.12c-.09.16-.22.35-.39.56-.17.21-.4.39-.69.55-.32.15-.69.23-1.16.23zm.33-1.27c.43 0 .79-.11 1.09-.34.3-.23.52-.54.68-.95.15-.4.23-.88.23-1.41 0-.53-.08-.99-.23-1.39-.15-.4-.38-.71-.67-.93-.29-.22-.66-.33-1.09-.33-.45 0-.82.12-1.12.35s-.52.55-.67.95c-.15.4-.23.85-.23 1.36 0 .51.08.97.23 1.38.15.41.38.73.68.97.29.22.66.34 1.1.34zM610.44 902.3c-.75 0-1.4-.16-1.94-.49-.54-.32-.96-.78-1.25-1.37-.29-.59-.44-1.28-.44-2.07 0-.78.15-1.47.44-2.07s.7-1.06 1.23-1.4 1.15-.5 1.86-.5c.43 0 .85.07 1.25.21.4.14.77.37 1.09.67.32.3.57.7.76 1.19.19.49.28 1.07.28 1.77v.53h-6.07v-1.11h4.61c0-.39-.08-.74-.24-1.04-.16-.3-.38-.54-.67-.72s-.62-.26-1.01-.26c-.42 0-.78.1-1.09.31-.31.2-.55.47-.72.8-.17.33-.25.68-.25 1.06v.87c0 .51.09.95.27 1.3.18.36.43.63.76.82.32.19.7.28 1.14.28.28 0 .54-.04.77-.12.23-.08.43-.2.6-.37.17-.16.3-.36.39-.6l1.41.25c-.11.41-.31.78-.6 1.09-.29.31-.65.55-1.09.72-.43.16-.93.25-1.49.25zM623.9 896.37l-1.35.24c-.06-.17-.15-.34-.27-.49-.12-.16-.28-.28-.49-.38s-.46-.15-.77-.15c-.42 0-.77.09-1.05.28s-.42.43-.42.72c0 .26.09.46.28.62.19.16.49.28.92.38l1.21.28c.7.16 1.23.41 1.57.75.34.34.52.78.52 1.32 0 .46-.13.86-.4 1.22-.26.36-.63.64-1.1.84-.47.2-1.01.3-1.63.3-.85 0-1.55-.18-2.09-.55-.54-.37-.87-.89-.99-1.56l1.44-.22c.09.38.27.66.55.85s.64.29 1.09.29c.49 0 .88-.1 1.17-.31.29-.2.44-.45.44-.75a.77.77 0 0 0-.27-.6c-.18-.16-.45-.29-.81-.37l-1.29-.28c-.71-.16-1.24-.42-1.58-.78-.34-.36-.51-.8-.51-1.35 0-.45.13-.85.38-1.18s.6-.6 1.04-.79c.44-.19.95-.29 1.53-.29.83 0 1.48.18 1.95.53.46.36.78.84.93 1.43zM629.23 893.33a.93.93 0 0 1-.66-.26.836.836 0 0 1-.28-.62c0-.25.09-.46.28-.63.18-.17.41-.26.66-.26s.48.09.66.26a.836.836 0 0 1 0 1.25.89.89 0 0 1-.66.26zm-.75 8.82v-7.64h1.49v7.64h-1.49zM637.97 905.17c-.61 0-1.13-.08-1.56-.24-.44-.16-.79-.37-1.07-.63-.27-.26-.48-.55-.62-.86l1.28-.53c.09.15.21.3.36.46s.36.3.62.42.6.17 1.01.17c.56 0 1.03-.14 1.4-.41.37-.27.55-.71.55-1.3v-1.5h-.09c-.09.16-.22.34-.39.54s-.4.37-.69.52c-.29.15-.67.22-1.14.22-.6 0-1.15-.14-1.63-.42-.48-.28-.86-.7-1.14-1.26-.28-.56-.42-1.24-.42-2.05 0-.81.14-1.51.42-2.09.28-.58.66-1.02 1.14-1.33.48-.31 1.03-.46 1.65-.46.47 0 .86.08 1.15.24.29.16.52.34.68.55s.29.39.38.55h.11v-1.24h1.46v7.81c0 .66-.15 1.2-.46 1.62s-.72.73-1.23.93c-.54.19-1.12.29-1.77.29zm-.02-4.37c.43 0 .79-.1 1.09-.3.3-.2.52-.49.68-.86.15-.38.23-.83.23-1.36 0-.51-.08-.97-.23-1.36-.15-.39-.38-.7-.67-.92-.29-.22-.66-.33-1.09-.33-.45 0-.82.12-1.12.34-.3.23-.52.54-.67.94-.15.39-.23.83-.23 1.32 0 .5.08.94.23 1.32.15.38.38.67.68.89.29.21.66.32 1.1.32zM647.69 897.61v4.53h-1.49v-7.64h1.43v1.24h.09c.18-.4.45-.73.83-.97.38-.25.85-.37 1.42-.37.52 0 .98.11 1.37.33s.69.54.91.97c.21.43.32.96.32 1.59v4.86h-1.49v-4.68c0-.55-.14-.99-.43-1.3-.29-.31-.68-.47-1.19-.47-.34 0-.65.07-.92.22s-.48.37-.63.65c-.14.29-.22.64-.22 1.04zM663.09 896.37l-1.35.24c-.06-.17-.14-.34-.27-.49-.12-.16-.28-.28-.49-.38-.21-.1-.46-.15-.77-.15-.42 0-.77.09-1.05.28-.28.19-.42.43-.42.72 0 .26.09.46.28.62.19.16.49.28.92.38l1.21.28c.7.16 1.23.41 1.57.75.34.34.52.78.52 1.32 0 .46-.13.86-.39 1.22s-.63.64-1.1.84c-.47.2-1.01.3-1.63.3-.85 0-1.55-.18-2.09-.55s-.87-.89-.99-1.56l1.44-.22c.09.38.27.66.55.85s.64.29 1.09.29c.49 0 .88-.1 1.17-.31.29-.2.44-.45.44-.75a.77.77 0 0 0-.27-.6c-.18-.16-.45-.29-.81-.37l-1.29-.28c-.71-.16-1.24-.42-1.58-.78-.34-.36-.51-.8-.51-1.35 0-.45.13-.85.38-1.18s.6-.6 1.04-.79.95-.29 1.53-.29c.83 0 1.47.18 1.95.53.45.36.77.84.92 1.43zM671.23 894.51v1.19h-4.17v-1.19h4.17zm-3.05-1.83h1.49v7.22c0 .29.04.5.13.65.09.14.2.24.34.29a1.416 1.416 0 0 0 .76.05c.09-.02.16-.03.21-.04l.27 1.23c-.09.03-.21.07-.37.1-.16.04-.36.05-.6.06-.39.01-.76-.06-1.09-.21-.34-.15-.61-.37-.82-.68-.21-.31-.31-.69-.31-1.15v-7.52zM680.51 898.98v-4.47H682v7.64h-1.46v-1.32h-.08c-.18.41-.46.75-.84 1.02s-.87.41-1.44.41c-.49 0-.92-.11-1.3-.33-.38-.22-.67-.54-.88-.97s-.32-.96-.32-1.59v-4.86h1.49v4.68c0 .52.14.93.43 1.24.29.31.66.46 1.12.46.28 0 .56-.07.83-.21.28-.14.51-.35.69-.63.18-.28.27-.64.27-1.07zM689.65 902.3c-.62 0-1.17-.16-1.65-.47-.48-.32-.86-.77-1.13-1.36-.27-.59-.41-1.29-.41-2.12 0-.83.14-1.53.42-2.12.28-.59.66-1.04 1.14-1.35.48-.31 1.03-.47 1.65-.47.47 0 .86.08 1.15.24.29.16.52.34.68.55.16.21.29.39.38.55h.09v-3.78h1.49v10.18h-1.45v-1.19h-.12c-.09.16-.22.35-.39.56-.17.21-.4.39-.69.55-.31.15-.69.23-1.16.23zm.33-1.27c.43 0 .79-.11 1.09-.34.3-.23.52-.54.68-.95s.23-.88.23-1.41c0-.53-.08-.99-.23-1.39-.15-.4-.38-.71-.67-.93-.29-.22-.66-.33-1.09-.33-.45 0-.82.12-1.12.35-.3.23-.52.55-.67.95-.15.4-.23.85-.23 1.36 0 .51.08.97.23 1.38.15.41.38.73.68.97.29.22.66.34 1.1.34zM699.11 893.33a.93.93 0 0 1-.66-.26.836.836 0 0 1-.28-.62c0-.25.09-.46.28-.63.18-.17.41-.26.66-.26.26 0 .48.09.66.26a.836.836 0 0 1 0 1.25c-.18.18-.41.26-.66.26zm-.75 8.82v-7.64h1.49v7.64h-1.49zM707.86 902.3c-.72 0-1.34-.16-1.87-.49-.53-.33-.95-.79-1.24-1.38s-.44-1.28-.44-2.07c0-.79.15-1.49.44-2.08.29-.59.71-1.05 1.24-1.38.53-.33 1.16-.49 1.87-.49s1.34.16 1.87.49c.53.33.95.79 1.24 1.38.29.59.44 1.29.44 2.08s-.15 1.48-.44 2.07-.71 1.05-1.24 1.38c-.53.33-1.16.49-1.87.49zm0-1.25c.46 0 .85-.12 1.15-.37s.53-.57.68-.98c.15-.41.22-.86.22-1.35 0-.49-.07-.94-.22-1.34s-.37-.74-.68-.99c-.3-.25-.69-.37-1.15-.37-.47 0-.85.12-1.16.37-.31.25-.53.58-.68.99s-.22.86-.22 1.34c0 .49.07.94.22 1.35.15.41.37.73.68.98s.69.37 1.16.37zM716.85 902.24c-.27 0-.51-.1-.7-.29a.929.929 0 0 1-.29-.7c0-.27.1-.5.29-.7.2-.19.43-.29.7-.29s.5.1.7.29c.2.19.29.43.29.7 0 .18-.05.35-.14.5-.09.15-.21.27-.36.36-.14.09-.31.13-.49.13zM725.85 902.3c-.74 0-1.38-.17-1.91-.5-.53-.34-.94-.8-1.22-1.39-.29-.59-.43-1.27-.43-2.04 0-.78.15-1.46.44-2.06.29-.59.7-1.06 1.23-1.39s1.16-.5 1.88-.5c.58 0 1.1.11 1.55.32s.82.51 1.1.9c.28.38.45.83.5 1.35h-1.45c-.08-.36-.26-.67-.54-.92-.28-.26-.66-.39-1.14-.39-.41 0-.78.11-1.09.33-.31.22-.55.53-.72.92-.17.4-.26.87-.26 1.41 0 .56.08 1.04.25 1.44s.41.72.72.94c.31.22.68.33 1.1.33.28 0 .54-.05.77-.16.23-.1.42-.25.58-.45s.27-.43.33-.71h1.45c-.05.49-.21.93-.48 1.32s-.63.69-1.08.92c-.45.22-.97.33-1.58.33zM736.6 902.3c-.72 0-1.34-.16-1.87-.49s-.95-.79-1.24-1.38-.44-1.28-.44-2.07c0-.79.15-1.49.44-2.08.29-.59.71-1.05 1.24-1.38s1.16-.49 1.87-.49 1.34.16 1.88.49c.53.33.95.79 1.24 1.38.29.59.44 1.29.44 2.08s-.15 1.48-.44 2.07-.71 1.05-1.24 1.38c-.54.33-1.16.49-1.88.49zm.01-1.25c.46 0 .85-.12 1.15-.37.3-.25.53-.57.68-.98.15-.41.22-.86.22-1.35 0-.49-.07-.94-.22-1.34s-.37-.74-.68-.99c-.31-.25-.69-.37-1.15-.37-.47 0-.85.12-1.16.37-.31.25-.53.58-.68.99s-.22.86-.22 1.34c0 .49.07.94.22 1.35.15.41.38.73.68.98s.69.37 1.16.37zM744.62 902.15v-7.64h1.43v1.24h.09c.16-.42.42-.75.78-.99.36-.24.79-.36 1.3-.36s.94.12 1.29.36c.35.24.6.57.77.98h.08c.18-.41.47-.73.87-.98.4-.24.87-.37 1.42-.37.69 0 1.26.22 1.7.65.44.43.66 1.09.66 1.96v5.12h-1.49v-4.98c0-.52-.14-.89-.42-1.12a1.55 1.55 0 0 0-1.01-.35c-.48 0-.86.15-1.13.45-.27.3-.4.68-.4 1.14v4.87h-1.48v-5.08c0-.41-.13-.75-.39-1s-.59-.38-1.01-.38c-.28 0-.54.07-.78.22s-.43.35-.57.61c-.14.26-.22.57-.22.91v4.71h-1.49z" style="cursor: pointer;"></path><defs><path id="SVGID_1_" d="M466.81 533.04h654.48v427.51H466.81z"></path></defs><clipPath id="SVGID_00000026872743642333003070000009906866541617564550_"><use xlink:href="#SVGID_1_" style="overflow:visible"></use></clipPath><path class="st3" d="M560.23 201.41c-1.93-46.64 1.43-93.03 9.98-137.88l.16-.81h144.21l-1.52 1.67c-46.28 50.97-97.17 97.33-151.23 137.78l-1.52 1.14-.08-1.9z" style="cursor: pointer;"></path><path class="st4" d="m457.42 491.96-23.12-17.09.49-.78c39.08-62.48 79.98-106.2 121.56-129.94l.97-.56 63.55 148.37H457.42z" style="cursor: pointer;"></path><path class="st5" d="m458.38 112.59 53.44 124.78-.7.46c-73.73 48.61-152.98 87.39-235.55 115.27l-3.12 1.05 185.93-241.56z" style="cursor: pointer;"></path><path class="st6" d="M157.71 232.57 368 62.72h69.02l22.26 51.97L275.86 353l-.29.1c-39.19 13.23-78.45 23.76-116.67 31.3l-1.19.24V232.57z" style="cursor: pointer;"></path><path class="st7" d="m271.92 354.84 2.73-3.54.29-.1c82.41-27.82 161.5-66.53 235.09-115.04l1-.66 47.09 109.94-.77.44c-41.29 23.58-81.95 67.07-120.86 129.27l-.57.92-164-121.23z" style="cursor: pointer;"></path><path class="st6" d="m423.96 491.96.89-1.51c3.45-5.84 6.7-11.2 9.93-16.37l.57-.92 25.42 18.79h-36.81z"></path><path class="st8" d="M157.71 62.72h213.47L157.71 235.14z" style="cursor: pointer;"></path><path class="st9" d="M157.71 491.96V382.58l.81-.16c38.13-7.52 77.3-18.02 116.41-31.23l3.12-1.05-3.31 4.3 162.22 119.91-.49.78c-3.23 5.16-6.47 10.5-9.91 16.32l-.29.49H157.71z" style="fill: var(--c5, var(--c3, var(--c1))); cursor: pointer;"></path><path class="st10" style="fill: var(--c10, var(--c8, var(--c6, var(--c4, var(--c2, var(--c1)))))); cursor: pointer;" d="M434.85 62.72h64.44l-41.4 53.79z"></path><path class="st8" d="m618.69 491.96-63.12-147.38.77-.44c24.81-14.17 50.2-21.35 75.46-21.35 3.83 0 7.72.17 11.56.49 61.03 5.19 118.29 39.05 170.18 100.63l.24.28v67.76H618.69z" style="cursor: pointer;"></path><path class="st4" d="m456.98 114.4 39.78-51.68h75.65l-.23 1.19c-8.52 44.7-11.87 90.94-9.95 137.42l.02.53-.42.32a1042.182 1042.182 0 0 1-50.71 35.65l-1 .66-53.14-124.09z"></path><path class="st5" d="M570.73 293.89c-5.7-30.91-9.23-62.02-10.49-92.47l-.02-.53.42-.32c53.96-40.38 104.75-86.65 150.95-137.52l.3-.33h101.9v142.75l-242.83 89.59-.23-1.17z" style="cursor: pointer;"></path><path class="st6" d="M812.01 425.2c-51.54-61.16-108.34-94.78-168.82-99.93-3.78-.32-7.61-.49-11.39-.49-24.91 0-49.96 7.09-74.46 21.09l-.97.56-47.04-109.82.7-.46c17.06-11.24 34.08-23.22 50.61-35.58l1.52-1.14.08 1.9c1.24 29.97 4.69 60.59 10.25 91.02l241.3-89.02V427.3l-1.78-2.1z" style="cursor: pointer;"></path><path class="st3" d="m915.82 961.42 1.52-1.67c46.29-50.97 97.17-97.33 151.23-137.78l1.52-1.14.08 1.9c1.93 46.64-1.43 93.03-9.98 137.88l-.16.81H915.82z"></path><path class="st11" d="M1009.53 532.18h112.75v111.04l-.31.3c-15.78 15.06-31.91 27.34-47.92 36.48l-.97.56-63.55-148.38z" style="fill:#bb3e04;fill:var(--c8, var(--c5, var(--c3, var(--c1))))"></path><path class="st5" d="m1118.58 786.77 3.71-2.43v6.22l-1.92.39z"></path><path class="st7" d="m1072.29 678.7.77-.44c15.87-9.07 31.87-21.24 47.53-36.19l1.69-1.61v146.28l-1.91 1.25-1 .66-47.08-109.95z"></path><path class="st8" d="M998.6 701.35c-3.83 0-7.72-.17-11.55-.49-61.03-5.19-118.29-39.05-170.18-100.63l-.24-.28v-67.76h195.08l63.12 147.38-.77.44c-24.81 14.15-50.2 21.34-75.46 21.34z" style="cursor: pointer;"></path><path class="st4" d="m1057.99 961.42.23-1.19c8.52-44.7 11.87-90.94 9.95-137.42l-.02-.53.42-.32a1052.02 1052.02 0 0 1 50.71-35.65l1-.66 2.01 4.7v171.06h-64.3z"></path><path class="st5" d="M816.62 961.42V818.67l242.83-89.59.22 1.17c5.7 30.91 9.23 62.02 10.49 92.47l.02.53-.42.32c-53.96 40.38-104.75 86.65-150.95 137.52l-.3.33H816.62z"></path><path class="st6" d="M1068.17 822.8c-1.24-29.97-4.69-60.59-10.25-91.02l-241.3 89.02V596.84l1.76 2.09c51.54 61.16 108.34 94.78 168.82 99.93 3.78.32 7.61.48 11.39.48 24.91 0 49.96-7.09 74.47-21.09l.97-.56 47.03 109.82-.7.46a1042.96 1042.96 0 0 0-50.61 35.58l-1.52 1.14-.06-1.89z" style="cursor: pointer;"></path></g></svg>