<svg version="1.1" id="vis_b2" xmlns="http://www.w3.org/2000/svg" x="0" y="0" viewBox="0 0 1280 1024" style="enable-background:new 0 0 1280 1024" xml:space="preserve"><style>#vis_b2 .st3{fill:#ae2112;fill:var(--c3, var(--c2, var(--c1)))}#vis_b2 .st5{fill:#9a2226;fill:var(--c5, var(--c3, var(--c1)))}#vis_b2 .st7{fill:#015f73;fill:var(--c7, var(--c4, var(--c2, var(--c1))))}#vis_b2 .st8{fill:#bb3e04;fill:var(--c8, var(--c5, var(--c3, var(--c1))))}#vis_b2 .st9{fill:#bb3e04;fill:var(--c9, var(--c7, var(--c5, var(--c4, var(--c1)))))}#vis_b2 .st10{fill:#bb3e04;fill:var(--c10, var(--c8, var(--c6, var(--c4, var(--c2, var(--c1))))))}</style><path class="st1" style="fill: var(--c1); cursor: pointer;" d="M84.04 103.14h541.13v253.14H84.04z"></path><path class="st10" d="M338.67 184.32h11.06v28.88h14.77v8.77h-25.83v-37.65zM368.08 193.16h10.7v28.81h-10.7v-28.81zm1.58-4.09c-1.02-1.01-1.53-2.2-1.53-3.57 0-1.39.51-2.59 1.53-3.59s2.27-1.5 3.77-1.5 2.75.5 3.77 1.5 1.53 2.2 1.53 3.59c0 1.37-.51 2.57-1.53 3.57-1.02 1.01-2.27 1.51-3.77 1.51s-2.76-.51-3.77-1.51zM388 220.47c-1.75-1.42-2.62-3.82-2.62-7.21v-12.37h-3.81v-7.72h3.81v-6.31h10.7v6.31h5.06v7.72h-5.06v10.72c0 1.17.27 2 .8 2.5s1.34.76 2.44.76c.4 0 .73-.01 1-.04l.82-.09v7.46c-.57.1-1.26.2-2.05.27s-1.75.12-2.88.12c-3.73 0-6.46-.7-8.21-2.12zM409.86 220.47c-1.75-1.42-2.62-3.82-2.62-7.21v-12.37h-3.81v-7.72h3.81v-6.31h10.7v6.31H423v7.72h-5.06v10.72c0 1.17.27 2 .8 2.5s1.34.76 2.44.76c.4 0 .73-.01 1-.04l.82-.09v7.46c-.57.1-1.26.2-2.05.27s-1.75.12-2.88.12c-3.72 0-6.46-.7-8.21-2.12zM426.66 184.32h10.7v37.65h-10.7v-37.65zM447.76 220.79c-2.24-1.2-3.97-2.93-5.18-5.18-1.21-2.25-1.81-4.94-1.81-8.05v-.03c0-3.13.6-5.81 1.8-8.05 1.2-2.24 2.9-3.95 5.1-5.15 2.2-1.2 4.8-1.8 7.79-1.8s5.59.59 7.79 1.77c2.2 1.18 3.9 2.85 5.11 5.01 1.21 2.16 1.81 4.7 1.81 7.62v3.03h-24.19v-6.05h19.23l-4.93 5.69v-4.12c0-1.17-.19-2.17-.56-3-.37-.83-.9-1.47-1.58-1.92-.68-.44-1.48-.67-2.4-.67-.92 0-1.72.22-2.4.67-.68.44-1.2 1.08-1.58 1.92s-.56 1.84-.56 3v4.17c0 1.17.19 2.17.57 3 .38.83.93 1.47 1.64 1.92.71.44 1.57.67 2.58.67.94 0 1.72-.15 2.35-.46.63-.3 1.12-.66 1.47-1.06.36-.4.58-.74.67-1.02l.03-.08h9.52l-.08.34c-.21.94-.6 1.96-1.17 3.07-.57 1.1-1.4 2.16-2.48 3.16s-2.47 1.82-4.19 2.45-3.82.95-6.33.95c-3.09 0-5.77-.6-8.02-1.8zM338.67 231.77h11.06v37.65h-11.06v-37.65zm5.56 19.2h8.64c1.83 0 3.26-.46 4.29-1.37 1.03-.91 1.55-2.27 1.55-4.06v-.05c0-1.81-.52-3.16-1.55-4.06-1.04-.9-2.47-1.34-4.29-1.34h-8.64v-8.32h11.27c2.94 0 5.48.57 7.63 1.7 2.15 1.13 3.81 2.72 4.98 4.77 1.17 2.05 1.76 4.47 1.76 7.25v.05c0 2.78-.59 5.19-1.76 7.23s-2.84 3.6-4.98 4.71c-2.15 1.1-4.69 1.66-7.63 1.66h-11.27v-8.17zM373.32 231.77h10.7v37.65h-10.7v-37.65zM391.78 268.64c-1.47-.77-2.62-1.8-3.44-3.12-.83-1.31-1.24-2.8-1.24-4.45v-.03c0-2.78 1.03-4.94 3.1-6.46 2.07-1.52 5.02-2.41 8.85-2.67l11.77-.78v5.95l-9.99.7c-1.13.07-1.96.32-2.49.76-.53.43-.8 1.01-.8 1.72v.03c0 .75.3 1.32.89 1.72.59.4 1.38.6 2.37.6.85 0 1.6-.14 2.24-.43s1.15-.68 1.51-1.19c.37-.5.55-1.07.55-1.7v-8.95c0-.83-.27-1.5-.81-1.98-.54-.49-1.36-.73-2.45-.73s-1.95.21-2.56.63-.97.92-1.1 1.51l-.05.26h-9.55l.03-.34c.16-1.97.8-3.67 1.92-5.13 1.12-1.45 2.69-2.58 4.7-3.38 2.01-.8 4.41-1.2 7.21-1.2 2.68 0 5.02.41 7.02 1.24 2 .83 3.56 1.98 4.67 3.46 1.11 1.48 1.67 3.19 1.67 5.14v19.6h-10.7v-3.91h-.21c-.54.9-1.2 1.68-1.97 2.32-.77.64-1.67 1.13-2.67 1.46-1.01.33-2.13.5-3.37.5-1.93 0-3.63-.39-5.1-1.15zM419.82 240.61h10.7v5.35h.21c.71-1.95 1.8-3.43 3.26-4.45 1.46-1.02 3.28-1.53 5.45-1.53 3.17 0 5.61.96 7.32 2.87 1.71 1.91 2.57 4.6 2.57 8.06v18.5h-10.7v-16.15c0-1.44-.34-2.58-1.02-3.42s-1.69-1.25-3.03-1.25c-.83 0-1.56.2-2.17.6-.61.4-1.08.95-1.41 1.64s-.5 1.5-.5 2.4v16.18h-10.7v-28.8zM459.48 268.25c-2.24-1.2-3.97-2.93-5.18-5.18-1.21-2.25-1.81-4.94-1.81-8.05v-.03c0-3.13.6-5.81 1.8-8.05 1.2-2.24 2.9-3.95 5.1-5.15 2.2-1.2 4.8-1.8 7.79-1.8s5.59.59 7.79 1.77c2.2 1.18 3.9 2.85 5.11 5.01 1.21 2.16 1.81 4.7 1.81 7.62v3.03H457.7v-6.05h19.23l-4.93 5.69v-4.12c0-1.17-.19-2.17-.56-3-.37-.83-.9-1.47-1.58-1.92-.68-.44-1.48-.67-2.4-.67-.92 0-1.72.22-2.4.67-.68.44-1.2 1.08-1.58 1.92s-.56 1.84-.56 3v4.17c0 1.17.19 2.17.57 3 .38.83.93 1.47 1.64 1.92.71.44 1.57.67 2.58.67.94 0 1.72-.15 2.35-.46.63-.3 1.12-.66 1.47-1.06.36-.4.58-.74.67-1.02l.03-.08h9.52l-.08.34c-.21.94-.6 1.96-1.17 3.07-.57 1.1-1.4 2.16-2.48 3.16s-2.47 1.82-4.19 2.45-3.82.95-6.33.95c-3.1 0-5.78-.6-8.02-1.8zM490.36 267.92c-1.75-1.42-2.62-3.82-2.62-7.21v-12.37h-3.81v-7.72h3.81v-6.31h10.7v6.31h5.06v7.72h-5.06v10.72c0 1.17.27 2 .8 2.5s1.34.76 2.44.76c.4 0 .73-.01 1-.04l.82-.09v7.46c-.57.1-1.26.2-2.05.27s-1.75.12-2.88.12c-3.73.01-6.46-.7-8.21-2.12zM251.26 274.9c-26.55 0-48.14-21.6-48.14-48.14s21.6-48.14 48.14-48.14 48.14 21.6 48.14 48.14-21.59 48.14-48.14 48.14zm0-90.28c-23.24 0-42.14 18.91-42.14 42.14s18.91 42.14 42.14 42.14 42.14-18.9 42.14-42.14-18.9-42.14-42.14-42.14z" style="cursor: pointer;"></path><path class="st10" d="M225.47 249.72c-2.88 0-5.22-2.34-5.22-5.22s2.34-5.22 5.22-5.22 5.22 2.34 5.22 5.22a5.23 5.23 0 0 1-5.22 5.22zm0-6.45c-.68 0-1.22.55-1.22 1.22 0 .68.55 1.22 1.22 1.22s1.22-.55 1.22-1.22c0-.67-.55-1.22-1.22-1.22zM270.61 236.82c-2.88 0-5.22-2.34-5.22-5.22s2.34-5.22 5.22-5.22 5.22 2.34 5.22 5.22-2.34 5.22-5.22 5.22zm0-6.45c-.68 0-1.22.55-1.22 1.22 0 .67.55 1.22 1.22 1.22s1.22-.55 1.22-1.22c0-.67-.55-1.22-1.22-1.22z"></path><circle class="st10" cx="225.47" cy="244.49" r="3.22"></circle><circle class="st10" cx="270.61" cy="231.6" r="3.22"></circle><path class="st10" d="M253.68 217.47c-5.99 0-10.87-4.88-10.87-10.87s4.88-10.87 10.87-10.87c5.99 0 10.87 4.88 10.87 10.87s-4.88 10.87-10.87 10.87zm0-17.73c-3.79 0-6.87 3.08-6.87 6.87s3.08 6.87 6.87 6.87 6.87-3.08 6.87-6.87-3.08-6.87-6.87-6.87z"></path><path class="st10" d="M293.89 276.5c-4.9 0-11.31-2.15-19.03-6.42-11.53-6.38-24.84-16.83-37.48-29.43l.63-.64-.64.63c-12.6-12.64-23.05-25.96-29.43-37.48-6.91-12.49-8.27-21.58-3.95-26.32.77-1.2 2.23-2.58 4.97-3.12 6.09-1.2 16.37 2.48 23.92 8.57l2.34 1.88-3.77 4.67-2.33-1.88c-6.62-5.34-15.16-8.11-18.99-7.36-.57.11-.99.31-1.1.51l-.21.38-.3.3c-4.67 4.67 5.66 28.08 33.1 55.61 27.42 27.33 50.77 37.69 55.56 33.15.83-1.62-.62-9.61-5.56-20.61l-1.23-2.74 5.47-2.46 1.23 2.74c3.66 8.16 9.1 22.54 4.38 27.26-1.84 1.84-4.38 2.76-7.58 2.76zm3.27-6.91z"></path><circle class="st10" cx="249.25" cy="247.72" r="13.3"></circle><path class="st2" style="fill: var(--c2, var(--c1)); cursor: pointer;" d="M654.84 103.14h541.13v253.14H654.84z"></path><path class="st9" d="M909.47 184.32h11.06v28.88h14.77v8.77h-25.83v-37.65zM938.88 193.16h10.7v28.81h-10.7v-28.81zm1.58-4.09c-1.02-1.01-1.53-2.2-1.53-3.57 0-1.39.51-2.59 1.53-3.59s2.27-1.5 3.77-1.5 2.75.5 3.77 1.5 1.53 2.2 1.53 3.59c0 1.37-.51 2.57-1.53 3.57-1.02 1.01-2.27 1.51-3.77 1.51s-2.75-.51-3.77-1.51zM958.8 220.47c-1.75-1.42-2.62-3.82-2.62-7.21v-12.37h-3.81v-7.72h3.81v-6.31h10.7v6.31h5.06v7.72h-5.06v10.72c0 1.17.27 2 .8 2.5s1.34.76 2.44.76c.4 0 .73-.01 1-.04l.82-.09v7.46c-.57.1-1.26.2-2.05.27-.79.08-1.75.12-2.88.12-3.72 0-6.46-.7-8.21-2.12zM980.67 220.47c-1.75-1.42-2.62-3.82-2.62-7.21v-12.37h-3.81v-7.72h3.81v-6.31h10.7v6.31h5.06v7.72h-5.06v10.72c0 1.17.27 2 .8 2.5s1.34.76 2.44.76c.4 0 .73-.01 1-.04l.82-.09v7.46c-.57.1-1.26.2-2.05.27-.79.08-1.75.12-2.88.12-3.73 0-6.46-.7-8.21-2.12zM997.46 184.32h10.7v37.65h-10.7v-37.65zM1018.57 220.79c-2.24-1.2-3.97-2.93-5.18-5.18-1.21-2.25-1.81-4.94-1.81-8.05v-.03c0-3.13.6-5.81 1.8-8.05s2.9-3.95 5.1-5.15c2.2-1.2 4.8-1.8 7.79-1.8s5.59.59 7.79 1.77c2.2 1.18 3.9 2.85 5.11 5.01 1.21 2.16 1.81 4.7 1.81 7.62v3.03h-24.19v-6.05h19.23l-4.93 5.69v-4.12c0-1.17-.19-2.17-.56-3-.38-.83-.9-1.47-1.58-1.92-.68-.44-1.48-.67-2.4-.67s-1.72.22-2.4.67c-.68.44-1.21 1.08-1.58 1.92s-.56 1.84-.56 3v4.17c0 1.17.19 2.17.57 3 .38.83.93 1.47 1.64 1.92.71.44 1.57.67 2.58.67.94 0 1.72-.15 2.35-.46.63-.3 1.12-.66 1.47-1.06.36-.4.58-.74.67-1.02l.03-.08h9.52l-.08.34c-.21.94-.6 1.96-1.17 3.07-.57 1.1-1.4 2.16-2.48 3.16s-2.47 1.82-4.19 2.45c-1.71.63-3.82.95-6.33.95-3.1 0-5.78-.6-8.02-1.8zM909.47 231.77h11.06v37.65h-11.06v-37.65zm5.56 19.2h8.64c1.83 0 3.26-.46 4.29-1.37 1.04-.91 1.55-2.27 1.55-4.06v-.05c0-1.81-.52-3.16-1.55-4.06-1.04-.9-2.47-1.34-4.29-1.34h-8.64v-8.32h11.27c2.94 0 5.48.57 7.63 1.7 2.15 1.13 3.81 2.72 4.98 4.77 1.17 2.05 1.76 4.47 1.76 7.25v.05c0 2.78-.59 5.19-1.76 7.23s-2.83 3.6-4.98 4.71c-2.15 1.1-4.69 1.66-7.63 1.66h-11.27v-8.17zM944.12 231.77h10.7v37.65h-10.7v-37.65zM962.58 268.64c-1.47-.77-2.62-1.8-3.44-3.12-.83-1.31-1.24-2.8-1.24-4.45v-.03c0-2.78 1.04-4.94 3.11-6.46 2.07-1.52 5.02-2.41 8.84-2.67l11.77-.78v5.95l-9.99.7c-1.13.07-1.96.32-2.49.76-.53.43-.8 1.01-.8 1.72v.03c0 .75.29 1.32.89 1.72.59.4 1.38.6 2.37.6.85 0 1.6-.14 2.24-.43s1.15-.68 1.51-1.19.55-1.07.55-1.7v-8.95c0-.83-.27-1.5-.81-1.98-.54-.49-1.36-.73-2.45-.73s-1.95.21-2.56.63c-.61.42-.97.92-1.1 1.51l-.05.26h-9.55l.03-.34c.16-1.97.8-3.67 1.92-5.13 1.12-1.45 2.69-2.58 4.7-3.38s4.41-1.2 7.21-1.2c2.68 0 5.02.41 7.02 1.24s3.56 1.98 4.67 3.46c1.11 1.48 1.67 3.19 1.67 5.14v19.6h-10.7v-3.91h-.21c-.54.9-1.2 1.68-1.97 2.32-.77.64-1.67 1.13-2.67 1.46-1.01.33-2.13.5-3.37.5-1.93 0-3.63-.39-5.1-1.15zM990.62 240.61h10.7v5.35h.21c.71-1.95 1.8-3.43 3.26-4.45s3.28-1.53 5.45-1.53c3.17 0 5.61.96 7.32 2.87 1.71 1.91 2.57 4.6 2.57 8.06v18.5h-10.7v-16.15c0-1.44-.34-2.58-1.02-3.42-.68-.83-1.69-1.25-3.03-1.25-.83 0-1.56.2-2.17.6-.61.4-1.08.95-1.41 1.64-.33.7-.5 1.5-.5 2.4v16.18h-10.7v-28.8zM1030.28 268.25c-2.24-1.2-3.97-2.93-5.18-5.18-1.21-2.25-1.81-4.94-1.81-8.05v-.03c0-3.13.6-5.81 1.8-8.05s2.9-3.95 5.1-5.15c2.2-1.2 4.8-1.8 7.79-1.8s5.59.59 7.79 1.77c2.2 1.18 3.9 2.85 5.11 5.01 1.21 2.16 1.81 4.7 1.81 7.62v3.03h-24.19v-6.05h19.23l-4.93 5.69v-4.12c0-1.17-.19-2.17-.56-3-.38-.83-.9-1.47-1.58-1.92-.68-.44-1.48-.67-2.4-.67s-1.72.22-2.4.67c-.68.44-1.21 1.08-1.58 1.92s-.56 1.84-.56 3v4.17c0 1.17.19 2.17.57 3 .38.83.93 1.47 1.64 1.92.71.44 1.57.67 2.58.67.94 0 1.72-.15 2.35-.46.63-.3 1.12-.66 1.47-1.06.36-.4.58-.74.67-1.02l.03-.08h9.52l-.08.34c-.21.94-.6 1.96-1.17 3.07-.57 1.1-1.4 2.16-2.48 3.16s-2.47 1.82-4.19 2.45c-1.71.63-3.82.95-6.33.95-3.09 0-5.77-.6-8.02-1.8zM1061.16 267.92c-1.75-1.42-2.62-3.82-2.62-7.21v-12.37h-3.81v-7.72h3.81v-6.31h10.7v6.31h5.06v7.72h-5.06v10.72c0 1.17.26 2 .8 2.5.53.5 1.34.76 2.44.76.4 0 .73-.01 1-.04l.82-.09v7.46c-.57.1-1.26.2-2.05.27-.79.08-1.75.12-2.88.12-3.72.01-6.46-.7-8.21-2.12zM822.06 274.9c-26.55 0-48.14-21.6-48.14-48.14s21.6-48.14 48.14-48.14 48.14 21.6 48.14 48.14-21.59 48.14-48.14 48.14zm0-90.28c-23.24 0-42.14 18.91-42.14 42.14s18.91 42.14 42.14 42.14 42.14-18.91 42.14-42.14-18.9-42.14-42.14-42.14z" style="cursor: pointer;"></path><path class="st9" d="M796.27 249.72c-2.88 0-5.22-2.34-5.22-5.22s2.34-5.22 5.22-5.22 5.22 2.34 5.22 5.22a5.23 5.23 0 0 1-5.22 5.22zm0-6.45c-.67 0-1.22.55-1.22 1.22 0 .68.55 1.22 1.22 1.22s1.22-.55 1.22-1.22c0-.67-.55-1.22-1.22-1.22zM841.41 236.82c-2.88 0-5.22-2.34-5.22-5.22s2.34-5.22 5.22-5.22 5.22 2.34 5.22 5.22c.01 2.88-2.34 5.22-5.22 5.22zm0-6.45c-.67 0-1.22.55-1.22 1.22 0 .67.55 1.22 1.22 1.22s1.22-.55 1.22-1.22c.01-.67-.54-1.22-1.22-1.22z"></path><circle class="st9" cx="796.27" cy="244.49" r="3.22"></circle><circle class="st9" cx="841.41" cy="231.6" r="3.22"></circle><path class="st9" d="M824.48 217.47c-5.99 0-10.87-4.88-10.87-10.87s4.88-10.87 10.87-10.87 10.87 4.88 10.87 10.87-4.87 10.87-10.87 10.87zm0-17.73c-3.79 0-6.87 3.08-6.87 6.87s3.08 6.87 6.87 6.87 6.87-3.08 6.87-6.87-3.08-6.87-6.87-6.87z"></path><path class="st9" d="M864.7 276.5c-4.9 0-11.31-2.15-19.03-6.42-11.53-6.38-24.84-16.83-37.48-29.43l.63-.63-.63.63c-12.6-12.64-23.05-25.96-29.43-37.48-6.91-12.49-8.27-21.58-3.95-26.32.77-1.2 2.23-2.58 4.97-3.12 6.08-1.2 16.37 2.48 23.92 8.57l2.33 1.88-3.77 4.67-2.34-1.88c-6.62-5.34-15.16-8.11-18.99-7.36-.57.11-.99.31-1.1.51l-.21.38-.3.3c-4.67 4.67 5.66 28.08 33.1 55.61 27.43 27.34 50.77 37.69 55.56 33.15.83-1.62-.62-9.61-5.56-20.61l-1.23-2.74 5.47-2.46 1.23 2.74c3.66 8.16 9.1 22.54 4.39 27.26-1.84 1.83-4.39 2.75-7.58 2.75zm3.26-6.91z" style="cursor: pointer;"></path><circle class="st9" cx="820.05" cy="247.72" r="13.3" style="cursor: pointer;"></circle><path class="st3" d="M84.04 385.43h541.13v253.14H84.04z" style="cursor: pointer;"></path><path class="st8" d="M338.67 466.6h11.06v28.88h14.77v8.77h-25.83V466.6zM368.08 475.45h10.7v28.81h-10.7v-28.81zm1.58-4.1c-1.02-1.01-1.53-2.2-1.53-3.57 0-1.39.51-2.59 1.53-3.59s2.27-1.5 3.77-1.5 2.75.5 3.77 1.5 1.53 2.2 1.53 3.59c0 1.37-.51 2.57-1.53 3.57-1.02 1.01-2.27 1.51-3.77 1.51s-2.76-.5-3.77-1.51zM388 502.75c-1.75-1.42-2.62-3.82-2.62-7.21v-12.37h-3.81v-7.72h3.81v-6.31h10.7v6.31h5.06v7.72h-5.06v10.72c0 1.17.27 2 .8 2.5s1.34.76 2.44.76c.4 0 .73-.01 1-.04l.82-.09v7.46c-.57.1-1.26.2-2.05.27s-1.75.12-2.88.12c-3.73.01-6.46-.7-8.21-2.12zM409.86 502.75c-1.75-1.42-2.62-3.82-2.62-7.21v-12.37h-3.81v-7.72h3.81v-6.31h10.7v6.31H423v7.72h-5.06v10.72c0 1.17.27 2 .8 2.5s1.34.76 2.44.76c.4 0 .73-.01 1-.04l.82-.09v7.46c-.57.1-1.26.2-2.05.27s-1.75.12-2.88.12c-3.72.01-6.46-.7-8.21-2.12zM426.66 466.6h10.7v37.65h-10.7V466.6zM447.76 503.08c-2.24-1.2-3.97-2.93-5.18-5.18-1.21-2.25-1.81-4.94-1.81-8.05v-.03c0-3.13.6-5.81 1.8-8.05 1.2-2.24 2.9-3.95 5.1-5.15 2.2-1.2 4.8-1.8 7.79-1.8s5.59.59 7.79 1.77c2.2 1.18 3.9 2.85 5.11 5.01 1.21 2.16 1.81 4.7 1.81 7.62v3.03h-24.19v-6.05h19.23l-4.93 5.69v-4.12c0-1.17-.19-2.17-.56-3-.37-.83-.9-1.47-1.58-1.92-.68-.44-1.48-.67-2.4-.67-.92 0-1.72.22-2.4.67-.68.44-1.2 1.08-1.58 1.92s-.56 1.84-.56 3v4.17c0 1.17.19 2.17.57 3 .38.83.93 1.47 1.64 1.92.71.44 1.57.67 2.58.67.94 0 1.72-.15 2.35-.46.63-.3 1.12-.66 1.47-1.06.36-.4.58-.74.67-1.02l.03-.08h9.52l-.08.34c-.21.94-.6 1.96-1.17 3.07-.57 1.1-1.4 2.16-2.48 3.16s-2.47 1.82-4.19 2.45-3.82.95-6.33.95c-3.09 0-5.77-.6-8.02-1.8zM338.67 514.06h11.06v37.65h-11.06v-37.65zm5.56 19.2h8.64c1.83 0 3.26-.46 4.29-1.37 1.03-.91 1.55-2.27 1.55-4.06v-.05c0-1.81-.52-3.16-1.55-4.06-1.04-.9-2.47-1.34-4.29-1.34h-8.64v-8.32h11.27c2.94 0 5.48.57 7.63 1.7s3.81 2.72 4.98 4.77c1.17 2.05 1.76 4.47 1.76 7.25v.05c0 2.78-.59 5.19-1.76 7.23s-2.84 3.6-4.98 4.71c-2.15 1.11-4.69 1.66-7.63 1.66h-11.27v-8.17zM373.32 514.06h10.7v37.65h-10.7v-37.65zM391.78 550.92c-1.47-.77-2.62-1.8-3.44-3.12s-1.24-2.8-1.24-4.45v-.03c0-2.78 1.03-4.94 3.1-6.46 2.07-1.52 5.02-2.41 8.85-2.67l11.77-.78v5.95l-9.99.71c-1.13.07-1.96.32-2.49.76-.53.43-.8 1.01-.8 1.72v.03c0 .75.3 1.32.89 1.72.59.4 1.38.6 2.37.6.85 0 1.6-.14 2.24-.43s1.15-.68 1.51-1.19c.37-.5.55-1.07.55-1.7v-8.95c0-.83-.27-1.5-.81-1.98-.54-.49-1.36-.73-2.45-.73s-1.95.21-2.56.63c-.61.42-.97.92-1.1 1.51l-.05.26h-9.55l.03-.34c.16-1.97.8-3.67 1.92-5.13s2.69-2.58 4.7-3.38c2.01-.8 4.41-1.2 7.21-1.2 2.68 0 5.02.41 7.02 1.24 2 .83 3.56 1.98 4.67 3.46 1.11 1.48 1.67 3.19 1.67 5.14v19.6h-10.7v-3.91h-.21c-.54.91-1.2 1.68-1.97 2.32-.77.64-1.67 1.13-2.67 1.46-1.01.33-2.13.5-3.37.5-1.93-.01-3.63-.39-5.1-1.16zM419.82 522.9h10.7v5.35h.21c.71-1.95 1.8-3.43 3.26-4.45 1.46-1.02 3.28-1.53 5.45-1.53 3.17 0 5.61.96 7.32 2.87 1.71 1.91 2.57 4.6 2.57 8.06v18.5h-10.7v-16.15c0-1.44-.34-2.58-1.02-3.42s-1.69-1.25-3.03-1.25c-.83 0-1.56.2-2.17.6-.61.4-1.08.95-1.41 1.64-.33.7-.5 1.5-.5 2.4v16.18h-10.7v-28.8zM459.48 550.53c-2.24-1.2-3.97-2.93-5.18-5.18-1.21-2.25-1.81-4.94-1.81-8.05v-.03c0-3.13.6-5.81 1.8-8.05 1.2-2.24 2.9-3.95 5.1-5.15 2.2-1.2 4.8-1.8 7.79-1.8s5.59.59 7.79 1.77c2.2 1.18 3.9 2.85 5.11 5.01 1.21 2.16 1.81 4.7 1.81 7.62v3.03H457.7v-6.05h19.23l-4.93 5.69v-4.12c0-1.17-.19-2.17-.56-3-.37-.83-.9-1.47-1.58-1.92-.68-.44-1.48-.67-2.4-.67-.92 0-1.72.22-2.4.67-.68.44-1.2 1.08-1.58 1.92s-.56 1.84-.56 3v4.17c0 1.17.19 2.17.57 3 .38.83.93 1.47 1.64 1.92.71.44 1.57.67 2.58.67.94 0 1.72-.15 2.35-.46.63-.3 1.12-.66 1.47-1.06.36-.4.58-.74.67-1.02l.03-.08h9.52l-.08.34c-.21.94-.6 1.96-1.17 3.07-.57 1.1-1.4 2.16-2.48 3.16s-2.47 1.82-4.19 2.45-3.82.95-6.33.95c-3.1 0-5.78-.6-8.02-1.8zM490.36 550.21c-1.75-1.42-2.62-3.82-2.62-7.21v-12.37h-3.81v-7.72h3.81v-6.31h10.7v6.31h5.06v7.72h-5.06v10.72c0 1.17.27 2 .8 2.5s1.34.76 2.44.76c.4 0 .73-.01 1-.04l.82-.09v7.46c-.57.1-1.26.2-2.05.27s-1.75.12-2.88.12c-3.73 0-6.46-.71-8.21-2.12zM251.26 557.19c-26.55 0-48.14-21.6-48.14-48.14s21.6-48.14 48.14-48.14 48.14 21.6 48.14 48.14-21.59 48.14-48.14 48.14zm0-90.29c-23.24 0-42.14 18.91-42.14 42.14s18.91 42.14 42.14 42.14 42.14-18.91 42.14-42.14-18.9-42.14-42.14-42.14z" style="cursor: pointer;"></path><path class="st8" d="M225.47 532c-2.88 0-5.22-2.34-5.22-5.22s2.34-5.22 5.22-5.22 5.22 2.34 5.22 5.22-2.34 5.22-5.22 5.22zm0-6.45c-.68 0-1.22.55-1.22 1.22s.55 1.22 1.22 1.22 1.22-.55 1.22-1.22-.55-1.22-1.22-1.22zM270.61 519.11c-2.88 0-5.22-2.34-5.22-5.22s2.34-5.22 5.22-5.22 5.22 2.34 5.22 5.22a5.23 5.23 0 0 1-5.22 5.22zm0-6.45c-.68 0-1.22.55-1.22 1.22s.55 1.22 1.22 1.22 1.22-.55 1.22-1.22-.55-1.22-1.22-1.22z"></path><circle class="st8" cx="225.47" cy="526.78" r="3.22"></circle><circle class="st8" cx="270.61" cy="513.88" r="3.22"></circle><path class="st8" d="M253.68 499.76c-5.99 0-10.87-4.88-10.87-10.87 0-5.99 4.88-10.87 10.87-10.87 5.99 0 10.87 4.88 10.87 10.87 0 5.99-4.88 10.87-10.87 10.87zm0-17.74c-3.79 0-6.87 3.08-6.87 6.87s3.08 6.87 6.87 6.87 6.87-3.08 6.87-6.87-3.08-6.87-6.87-6.87z"></path><path class="st8" d="M293.89 558.79c-4.9 0-11.31-2.15-19.03-6.42-11.53-6.38-24.84-16.83-37.48-29.43l.64-.64-.64.64c-12.6-12.64-23.05-25.96-29.43-37.49-6.91-12.49-8.27-21.58-3.95-26.32.77-1.2 2.23-2.58 4.97-3.12 6.08-1.21 16.37 2.48 23.92 8.57l2.34 1.88-3.77 4.67-2.33-1.88c-6.62-5.34-15.16-8.12-18.99-7.36-.57.11-.99.31-1.1.51l-.21.38-.3.3c-4.67 4.67 5.66 28.08 33.1 55.61 27.42 27.34 50.77 37.69 55.56 33.15.83-1.62-.62-9.61-5.56-20.61l-1.23-2.74 5.47-2.46 1.23 2.74c3.66 8.16 9.1 22.54 4.38 27.26-1.85 1.84-4.39 2.76-7.59 2.76z"></path><circle class="st8" cx="249.25" cy="530" r="13.3"></circle><path class="st5" d="M654.84 385.43h541.13v253.14H654.84z" style="cursor: pointer;"></path><path class="st7" d="M909.47 466.6h11.06v28.88h14.77v8.77h-25.83V466.6zM938.88 475.45h10.7v28.81h-10.7v-28.81zm1.58-4.1c-1.02-1.01-1.53-2.2-1.53-3.57 0-1.39.51-2.59 1.53-3.59s2.27-1.5 3.77-1.5 2.75.5 3.77 1.5 1.53 2.2 1.53 3.59c0 1.37-.51 2.57-1.53 3.57-1.02 1.01-2.27 1.51-3.77 1.51s-2.75-.5-3.77-1.51zM958.8 502.75c-1.75-1.42-2.62-3.82-2.62-7.21v-12.37h-3.81v-7.72h3.81v-6.31h10.7v6.31h5.06v7.72h-5.06v10.72c0 1.17.27 2 .8 2.5s1.34.76 2.44.76c.4 0 .73-.01 1-.04l.82-.09v7.46c-.57.1-1.26.2-2.05.27-.79.08-1.75.12-2.88.12-3.72.01-6.46-.7-8.21-2.12zM980.67 502.75c-1.75-1.42-2.62-3.82-2.62-7.21v-12.37h-3.81v-7.72h3.81v-6.31h10.7v6.31h5.06v7.72h-5.06v10.72c0 1.17.27 2 .8 2.5s1.34.76 2.44.76c.4 0 .73-.01 1-.04l.82-.09v7.46c-.57.1-1.26.2-2.05.27-.79.08-1.75.12-2.88.12-3.73.01-6.46-.7-8.21-2.12zM997.46 466.6h10.7v37.65h-10.7V466.6zM1018.57 503.08c-2.24-1.2-3.97-2.93-5.18-5.18-1.21-2.25-1.81-4.94-1.81-8.05v-.03c0-3.13.6-5.81 1.8-8.05s2.9-3.95 5.1-5.15c2.2-1.2 4.8-1.8 7.79-1.8s5.59.59 7.79 1.77c2.2 1.18 3.9 2.85 5.11 5.01 1.21 2.16 1.81 4.7 1.81 7.62v3.03h-24.19v-6.05h19.23l-4.93 5.69v-4.12c0-1.17-.19-2.17-.56-3-.38-.83-.9-1.47-1.58-1.92-.68-.44-1.48-.67-2.4-.67s-1.72.22-2.4.67c-.68.44-1.21 1.08-1.58 1.92s-.56 1.84-.56 3v4.17c0 1.17.19 2.17.57 3 .38.83.93 1.47 1.64 1.92.71.44 1.57.67 2.58.67.94 0 1.72-.15 2.35-.46.63-.3 1.12-.66 1.47-1.06.36-.4.58-.74.67-1.02l.03-.08h9.52l-.08.34c-.21.94-.6 1.96-1.17 3.07-.57 1.1-1.4 2.16-2.48 3.16s-2.47 1.82-4.19 2.45c-1.71.63-3.82.95-6.33.95-3.1 0-5.78-.6-8.02-1.8zM909.47 514.06h11.06v37.65h-11.06v-37.65zm5.56 19.2h8.64c1.83 0 3.26-.46 4.29-1.37 1.04-.91 1.55-2.27 1.55-4.06v-.05c0-1.81-.52-3.16-1.55-4.06-1.04-.9-2.47-1.34-4.29-1.34h-8.64v-8.32h11.27c2.94 0 5.48.57 7.63 1.7s3.81 2.72 4.98 4.77c1.17 2.05 1.76 4.47 1.76 7.25v.05c0 2.78-.59 5.19-1.76 7.23s-2.83 3.6-4.98 4.71c-2.15 1.11-4.69 1.66-7.63 1.66h-11.27v-8.17zM944.12 514.06h10.7v37.65h-10.7v-37.65zM962.58 550.92c-1.47-.77-2.62-1.8-3.44-3.12s-1.24-2.8-1.24-4.45v-.03c0-2.78 1.04-4.94 3.11-6.46 2.07-1.52 5.02-2.41 8.84-2.67l11.77-.78v5.95l-9.99.71c-1.13.07-1.96.32-2.49.76-.53.43-.8 1.01-.8 1.72v.03c0 .75.29 1.32.89 1.72.59.4 1.38.6 2.37.6.85 0 1.6-.14 2.24-.43s1.15-.68 1.51-1.19c.37-.5.55-1.07.55-1.7v-8.95c0-.83-.27-1.5-.81-1.98-.54-.49-1.36-.73-2.45-.73s-1.95.21-2.56.63c-.61.42-.97.92-1.1 1.51l-.05.26h-9.55l.03-.34c.16-1.97.8-3.67 1.92-5.13s2.69-2.58 4.7-3.38c2.01-.8 4.41-1.2 7.21-1.2 2.68 0 5.02.41 7.02 1.24s3.56 1.98 4.67 3.46c1.11 1.48 1.67 3.19 1.67 5.14v19.6h-10.7v-3.91h-.21c-.54.91-1.2 1.68-1.97 2.32-.77.64-1.67 1.13-2.67 1.46-1.01.33-2.13.5-3.37.5-1.93-.01-3.63-.39-5.1-1.16zM990.62 522.9h10.7v5.35h.21c.71-1.95 1.8-3.43 3.26-4.45s3.28-1.53 5.45-1.53c3.17 0 5.61.96 7.32 2.87 1.71 1.91 2.57 4.6 2.57 8.06v18.5h-10.7v-16.15c0-1.44-.34-2.58-1.02-3.42-.68-.83-1.69-1.25-3.03-1.25-.83 0-1.56.2-2.17.6-.61.4-1.08.95-1.41 1.64-.33.7-.5 1.5-.5 2.4v16.18h-10.7v-28.8zM1030.28 550.53c-2.24-1.2-3.97-2.93-5.18-5.18-1.21-2.25-1.81-4.94-1.81-8.05v-.03c0-3.13.6-5.81 1.8-8.05s2.9-3.95 5.1-5.15c2.2-1.2 4.8-1.8 7.79-1.8s5.59.59 7.79 1.77c2.2 1.18 3.9 2.85 5.11 5.01 1.21 2.16 1.81 4.7 1.81 7.62v3.03h-24.19v-6.05h19.23l-4.93 5.69v-4.12c0-1.17-.19-2.17-.56-3-.38-.83-.9-1.47-1.58-1.92-.68-.44-1.48-.67-2.4-.67s-1.72.22-2.4.67c-.68.44-1.21 1.08-1.58 1.92s-.56 1.84-.56 3v4.17c0 1.17.19 2.17.57 3 .38.83.93 1.47 1.64 1.92.71.44 1.57.67 2.58.67.94 0 1.72-.15 2.35-.46.63-.3 1.12-.66 1.47-1.06.36-.4.58-.74.67-1.02l.03-.08h9.52l-.08.34c-.21.94-.6 1.96-1.17 3.07-.57 1.1-1.4 2.16-2.48 3.16s-2.47 1.82-4.19 2.45c-1.71.63-3.82.95-6.33.95-3.09 0-5.77-.6-8.02-1.8zM1061.16 550.21c-1.75-1.42-2.62-3.82-2.62-7.21v-12.37h-3.81v-7.72h3.81v-6.31h10.7v6.31h5.06v7.72h-5.06v10.72c0 1.17.26 2 .8 2.5.53.5 1.34.76 2.44.76.4 0 .73-.01 1-.04l.82-.09v7.46c-.57.1-1.26.2-2.05.27-.79.08-1.75.12-2.88.12-3.72 0-6.46-.71-8.21-2.12zM822.06 557.19c-26.55 0-48.14-21.6-48.14-48.14s21.6-48.14 48.14-48.14 48.14 21.6 48.14 48.14-21.59 48.14-48.14 48.14zm0-90.29c-23.24 0-42.14 18.91-42.14 42.14s18.91 42.14 42.14 42.14 42.14-18.91 42.14-42.14-18.9-42.14-42.14-42.14z" style="cursor: pointer;"></path><path class="st7" d="M796.27 532c-2.88 0-5.22-2.34-5.22-5.22s2.34-5.22 5.22-5.22 5.22 2.34 5.22 5.22-2.34 5.22-5.22 5.22zm0-6.45c-.67 0-1.22.55-1.22 1.22s.55 1.22 1.22 1.22 1.22-.55 1.22-1.22-.55-1.22-1.22-1.22zM841.41 519.11c-2.88 0-5.22-2.34-5.22-5.22s2.34-5.22 5.22-5.22 5.22 2.34 5.22 5.22c.01 2.87-2.34 5.22-5.22 5.22zm0-6.45c-.67 0-1.22.55-1.22 1.22s.55 1.22 1.22 1.22 1.22-.55 1.22-1.22-.54-1.22-1.22-1.22z"></path><circle class="st7" cx="796.27" cy="526.78" r="3.22"></circle><circle class="st7" cx="841.41" cy="513.88" r="3.22"></circle><path class="st7" d="M824.48 499.76c-5.99 0-10.87-4.88-10.87-10.87 0-5.99 4.88-10.87 10.87-10.87s10.87 4.88 10.87 10.87c0 5.99-4.87 10.87-10.87 10.87zm0-17.74c-3.79 0-6.87 3.08-6.87 6.87s3.08 6.87 6.87 6.87 6.87-3.08 6.87-6.87-3.08-6.87-6.87-6.87z" style="cursor: pointer;"></path><path class="st7" d="M864.7 558.79c-4.9 0-11.31-2.15-19.03-6.42-11.53-6.38-24.84-16.83-37.48-29.43l.63-.63-.63.63c-12.6-12.64-23.05-25.96-29.43-37.49-6.91-12.49-8.27-21.58-3.95-26.32.77-1.2 2.23-2.58 4.97-3.12 6.09-1.21 16.37 2.48 23.92 8.57l2.33 1.88-3.77 4.67-2.33-1.88c-6.62-5.34-15.16-8.12-18.99-7.36-.57.11-.99.31-1.1.51l-.21.38-.3.3c-4.67 4.67 5.66 28.08 33.1 55.61 27.42 27.33 50.76 37.69 55.56 33.15.83-1.62-.62-9.61-5.56-20.61l-1.23-2.74 5.47-2.46 1.23 2.74c3.66 8.16 9.1 22.54 4.39 27.26-1.85 1.84-4.4 2.76-7.59 2.76z" style="cursor: pointer;"></path><circle class="st7" cx="820.05" cy="530" r="13.3"></circle><path class="st6" style="fill: var(--c6, var(--c4, var(--c2, var(--c1)))); cursor: pointer;" d="M84.04 667.72h541.13v253.14H84.04z"></path><path class="st5" d="M338.67 748.89h11.06v28.88h14.77v8.77h-25.83v-37.65zM368.08 757.73h10.7v28.81h-10.7v-28.81zm1.58-4.09c-1.02-1.01-1.53-2.2-1.53-3.57 0-1.39.51-2.59 1.53-3.59s2.27-1.5 3.77-1.5 2.75.5 3.77 1.5 1.53 2.2 1.53 3.59c0 1.37-.51 2.57-1.53 3.57-1.02 1.01-2.27 1.51-3.77 1.51s-2.76-.5-3.77-1.51zM388 785.04c-1.75-1.42-2.62-3.82-2.62-7.21v-12.37h-3.81v-7.72h3.81v-6.31h10.7v6.31h5.06v7.72h-5.06v10.72c0 1.17.27 2 .8 2.5s1.34.76 2.44.76c.4 0 .73-.01 1-.04l.82-.09v7.46c-.57.1-1.26.2-2.05.27s-1.75.12-2.88.12c-3.73.01-6.46-.7-8.21-2.12zM409.86 785.04c-1.75-1.42-2.62-3.82-2.62-7.21v-12.37h-3.81v-7.72h3.81v-6.31h10.7v6.31H423v7.72h-5.06v10.72c0 1.17.27 2 .8 2.5s1.34.76 2.44.76c.4 0 .73-.01 1-.04l.82-.09v7.46c-.57.1-1.26.2-2.05.27s-1.75.12-2.88.12c-3.72.01-6.46-.7-8.21-2.12zM426.66 748.89h10.7v37.65h-10.7v-37.65zM447.76 785.37c-2.24-1.2-3.97-2.93-5.18-5.18s-1.81-4.94-1.81-8.05v-.03c0-3.13.6-5.81 1.8-8.05 1.2-2.24 2.9-3.95 5.1-5.15 2.2-1.2 4.8-1.8 7.79-1.8s5.59.59 7.79 1.77c2.2 1.18 3.9 2.85 5.11 5.01 1.21 2.16 1.81 4.7 1.81 7.62v3.03h-24.19v-6.05h19.23l-4.93 5.69v-4.12c0-1.17-.19-2.17-.56-3-.37-.83-.9-1.47-1.58-1.92-.68-.44-1.48-.67-2.4-.67-.92 0-1.72.22-2.4.67-.68.44-1.2 1.08-1.58 1.92s-.56 1.83-.56 3v4.17c0 1.17.19 2.17.57 3 .38.83.93 1.47 1.64 1.92.71.44 1.57.67 2.58.67.94 0 1.72-.15 2.35-.46.63-.3 1.12-.66 1.47-1.06.36-.4.58-.74.67-1.02l.03-.08h9.52l-.08.34c-.21.94-.6 1.96-1.17 3.07-.57 1.11-1.4 2.16-2.48 3.16s-2.47 1.82-4.19 2.45-3.82.95-6.33.95c-3.09 0-5.77-.6-8.02-1.8zM338.67 796.34h11.06v37.65h-11.06v-37.65zm5.56 19.21h8.64c1.83 0 3.26-.46 4.29-1.37 1.03-.91 1.55-2.27 1.55-4.06v-.05c0-1.81-.52-3.16-1.55-4.06-1.04-.9-2.47-1.34-4.29-1.34h-8.64v-8.32h11.27c2.94 0 5.48.57 7.63 1.7s3.81 2.72 4.98 4.77c1.17 2.05 1.76 4.47 1.76 7.25v.05c0 2.78-.59 5.19-1.76 7.23s-2.84 3.6-4.98 4.71c-2.15 1.11-4.69 1.66-7.63 1.66h-11.27v-8.17zM373.32 796.34h10.7v37.65h-10.7v-37.65zM391.78 833.21c-1.47-.77-2.62-1.8-3.44-3.12s-1.24-2.8-1.24-4.45v-.03c0-2.78 1.03-4.94 3.1-6.46 2.07-1.52 5.02-2.41 8.85-2.67l11.77-.78v5.95l-9.99.71c-1.13.07-1.96.32-2.49.76-.53.43-.8 1.01-.8 1.72v.03c0 .75.3 1.32.89 1.72.59.4 1.38.6 2.37.6.85 0 1.6-.14 2.24-.43s1.15-.68 1.51-1.19c.37-.5.55-1.07.55-1.7v-8.95c0-.83-.27-1.5-.81-1.98-.54-.49-1.36-.73-2.45-.73s-1.95.21-2.56.63c-.61.42-.97.92-1.1 1.51l-.05.26h-9.55l.03-.34c.16-1.97.8-3.67 1.92-5.13s2.69-2.58 4.7-3.38c2.01-.8 4.41-1.2 7.21-1.2 2.68 0 5.02.41 7.02 1.24 2 .83 3.56 1.98 4.67 3.46 1.11 1.48 1.67 3.19 1.67 5.14V834h-10.7v-3.91h-.21c-.54.91-1.2 1.68-1.97 2.32-.77.64-1.67 1.13-2.67 1.46-1.01.33-2.13.5-3.37.5-1.93-.01-3.63-.39-5.1-1.16zM419.82 805.19h10.7v5.35h.21c.71-1.95 1.8-3.43 3.26-4.45 1.46-1.02 3.28-1.53 5.45-1.53 3.17 0 5.61.96 7.32 2.87 1.71 1.91 2.57 4.6 2.57 8.06v18.5h-10.7v-16.15c0-1.44-.34-2.58-1.02-3.42s-1.69-1.25-3.03-1.25c-.83 0-1.56.2-2.17.6-.61.4-1.08.95-1.41 1.64-.33.7-.5 1.5-.5 2.4v16.18h-10.7v-28.8zM459.48 832.82c-2.24-1.2-3.97-2.93-5.18-5.18-1.21-2.25-1.81-4.94-1.81-8.05v-.03c0-3.13.6-5.81 1.8-8.05 1.2-2.24 2.9-3.95 5.1-5.15 2.2-1.2 4.8-1.8 7.79-1.8s5.59.59 7.79 1.77c2.2 1.18 3.9 2.85 5.11 5.01 1.21 2.16 1.81 4.7 1.81 7.62v3.03H457.7v-6.05h19.23l-4.93 5.69v-4.12c0-1.17-.19-2.17-.56-3-.37-.83-.9-1.47-1.58-1.92-.68-.44-1.48-.67-2.4-.67-.92 0-1.72.22-2.4.67-.68.44-1.2 1.08-1.58 1.92s-.56 1.84-.56 3v4.17c0 1.17.19 2.17.57 3 .38.83.93 1.47 1.64 1.92.71.44 1.57.67 2.58.67.94 0 1.72-.15 2.35-.46.63-.3 1.12-.66 1.47-1.06.36-.4.58-.74.67-1.02l.03-.08h9.52l-.08.34c-.21.94-.6 1.96-1.17 3.07-.57 1.1-1.4 2.16-2.48 3.16s-2.47 1.82-4.19 2.45-3.82.95-6.33.95c-3.1 0-5.78-.6-8.02-1.8zM490.36 832.49c-1.75-1.42-2.62-3.82-2.62-7.21v-12.37h-3.81v-7.72h3.81v-6.31h10.7v6.31h5.06v7.72h-5.06v10.72c0 1.17.27 2 .8 2.5s1.34.76 2.44.76c.4 0 .73-.01 1-.04l.82-.09v7.46c-.57.1-1.26.2-2.05.27s-1.75.12-2.88.12c-3.73.01-6.46-.7-8.21-2.12zM251.26 839.47c-26.55 0-48.14-21.6-48.14-48.14s21.6-48.14 48.14-48.14 48.14 21.6 48.14 48.14-21.59 48.14-48.14 48.14zm0-90.28c-23.24 0-42.14 18.91-42.14 42.14s18.91 42.14 42.14 42.14 42.14-18.91 42.14-42.14-18.9-42.14-42.14-42.14z"></path><path class="st5" d="M225.47 814.29c-2.88 0-5.22-2.34-5.22-5.22s2.34-5.22 5.22-5.22 5.22 2.34 5.22 5.22-2.34 5.22-5.22 5.22zm0-6.45c-.68 0-1.22.55-1.22 1.22s.55 1.22 1.22 1.22 1.22-.55 1.22-1.22-.55-1.22-1.22-1.22zM270.61 801.39c-2.88 0-5.22-2.34-5.22-5.22s2.34-5.22 5.22-5.22 5.22 2.34 5.22 5.22-2.34 5.22-5.22 5.22zm0-6.45c-.68 0-1.22.55-1.22 1.22s.55 1.22 1.22 1.22 1.22-.55 1.22-1.22-.55-1.22-1.22-1.22z"></path><circle class="st5" cx="225.47" cy="809.07" r="3.22"></circle><circle class="st5" cx="270.61" cy="796.17" r="3.22"></circle><path class="st5" d="M253.68 782.05c-5.99 0-10.87-4.88-10.87-10.87 0-5.99 4.88-10.87 10.87-10.87 5.99 0 10.87 4.88 10.87 10.87 0 5.99-4.88 10.87-10.87 10.87zm0-17.74c-3.79 0-6.87 3.08-6.87 6.87s3.08 6.87 6.87 6.87 6.87-3.08 6.87-6.87-3.08-6.87-6.87-6.87z"></path><path class="st5" d="M293.89 841.07c-4.9 0-11.31-2.15-19.03-6.42-11.53-6.38-24.84-16.83-37.48-29.43l.63-.63-.64.63c-12.6-12.64-23.05-25.96-29.43-37.49-6.91-12.49-8.27-21.58-3.95-26.32.77-1.2 2.23-2.58 4.97-3.12 6.09-1.21 16.37 2.48 23.92 8.57l2.34 1.88-3.77 4.67-2.33-1.88c-6.62-5.34-15.16-8.11-18.99-7.36-.57.11-.99.31-1.1.51l-.21.38-.3.3c-4.67 4.67 5.66 28.08 33.1 55.61 27.42 27.33 50.77 37.69 55.56 33.15.83-1.62-.62-9.61-5.56-20.61l-1.23-2.74 5.47-2.46 1.23 2.74c3.66 8.16 9.1 22.54 4.38 27.26-1.84 1.85-4.38 2.76-7.58 2.76zm3.27-6.9z"></path><circle class="st5" cx="249.25" cy="812.29" r="13.3"></circle><path class="st7" d="M654.84 667.72h541.13v253.14H654.84z" style="cursor: pointer;"></path><path class="st3" d="M909.5,748.9h11.1v28.9h14.8v8.8h-25.8V748.9z M938.9,757.7h10.7v28.8h-10.7V757.7z M940.5,753.6c-1-1-1.5-2.2-1.5-3.6
	c0-1.4,0.5-2.6,1.5-3.6s2.3-1.5,3.8-1.5s2.8,0.5,3.8,1.5s1.5,2.2,1.5,3.6c0,1.4-0.5,2.6-1.5,3.6c-1,1-2.3,1.5-3.8,1.5
	S941.5,754.6,940.5,753.6z M958.8,785c-1.8-1.4-2.6-3.8-2.6-7.2v-12.4h-3.8v-7.7h3.8v-6.3h10.7v6.3h5.1v7.7h-5.1v10.7
	c0,1.2,0.3,2,0.8,2.5s1.3,0.8,2.4,0.8c0.4,0,0.7,0,1,0l0.8-0.1v7.5c-0.6,0.1-1.3,0.2-2,0.3c-0.8,0.1-1.8,0.1-2.9,0.1
	C963.3,787.2,960.5,786.5,958.8,785z M980.7,785c-1.8-1.4-2.6-3.8-2.6-7.2v-12.4h-3.8v-7.7h3.8v-6.3h10.7v6.3h5.1v7.7h-5.1v10.7
	c0,1.2,0.3,2,0.8,2.5s1.3,0.8,2.4,0.8c0.4,0,0.7,0,1,0l0.8-0.1v7.5c-0.6,0.1-1.3,0.2-2,0.3c-0.8,0.1-1.8,0.1-2.9,0.1
	C985.2,787.2,982.4,786.5,980.7,785z M997.5,748.9h10.7v37.7h-10.7V748.9z M1018.6,785.4c-2.2-1.2-4-2.9-5.2-5.2s-1.8-4.9-1.8-8v0
	c0-3.1,0.6-5.8,1.8-8s2.9-4,5.1-5.2c2.2-1.2,4.8-1.8,7.8-1.8c3,0,5.6,0.6,7.8,1.8c2.2,1.2,3.9,2.8,5.1,5c1.2,2.2,1.8,4.7,1.8,7.6v3
	h-24.2v-6h19.2l-4.9,5.7v-4.1c0-1.2-0.2-2.2-0.6-3c-0.4-0.8-0.9-1.5-1.6-1.9s-1.5-0.7-2.4-0.7s-1.7,0.2-2.4,0.7s-1.2,1.1-1.6,1.9
	s-0.6,1.8-0.6,3v4.2c0,1.2,0.2,2.2,0.6,3s0.9,1.5,1.6,1.9c0.7,0.4,1.6,0.7,2.6,0.7c0.9,0,1.7-0.2,2.3-0.5s1.1-0.7,1.5-1.1
	c0.4-0.4,0.6-0.7,0.7-1l0-0.1h9.5l-0.1,0.3c-0.2,0.9-0.6,2-1.2,3.1c-0.6,1.1-1.4,2.2-2.5,3.2s-2.5,1.8-4.2,2.5c-1.7,0.6-3.8,1-6.3,1
	C1023.5,787.2,1020.8,786.6,1018.6,785.4L1018.6,785.4z M909.5,796.3h11.1V834h-11.1V796.3z M915,815.6h8.6c1.8,0,3.3-0.5,4.3-1.4
	c1-0.9,1.5-2.3,1.5-4.1v0c0-1.8-0.5-3.2-1.5-4.1c-1-0.9-2.5-1.3-4.3-1.3H915v-8.3h11.3c2.9,0,5.5,0.6,7.6,1.7s3.8,2.7,5,4.8
	c1.2,2,1.8,4.5,1.8,7.2v0c0,2.8-0.6,5.2-1.8,7.2s-2.8,3.6-5,4.7c-2.2,1.1-4.7,1.7-7.6,1.7H915V815.6z M944.1,796.3h10.7V834h-10.7
	V796.3z M962.6,833.2c-1.5-0.8-2.6-1.8-3.4-3.1s-1.2-2.8-1.2-4.5v0c0-2.8,1-4.9,3.1-6.5s5-2.4,8.8-2.7l11.8-0.8v6l-10,0.7
	c-1.1,0.1-2,0.3-2.5,0.8c-0.5,0.4-0.8,1-0.8,1.7v0c0,0.8,0.3,1.3,0.9,1.7c0.6,0.4,1.4,0.6,2.4,0.6c0.8,0,1.6-0.1,2.2-0.4
	s1.2-0.7,1.5-1.2c0.4-0.5,0.5-1.1,0.5-1.7v-9c0-0.8-0.3-1.5-0.8-2c-0.5-0.5-1.4-0.7-2.5-0.7s-2,0.2-2.6,0.6s-1,0.9-1.1,1.5l0,0.3
	h-9.5l0-0.3c0.2-2,0.8-3.7,1.9-5.1s2.7-2.6,4.7-3.4s4.4-1.2,7.2-1.2c2.7,0,5,0.4,7,1.2s3.6,2,4.7,3.5c1.1,1.5,1.7,3.2,1.7,5.1V834
	h-10.7v-3.9h-0.2c-0.5,0.9-1.2,1.7-2,2.3c-0.8,0.6-1.7,1.1-2.7,1.5c-1,0.3-2.1,0.5-3.4,0.5C965.8,834.4,964.1,834,962.6,833.2
	L962.6,833.2z M990.6,805.2h10.7v5.3h0.2c0.7-2,1.8-3.4,3.3-4.5s3.3-1.5,5.5-1.5c3.2,0,5.6,1,7.3,2.9s2.6,4.6,2.6,8.1V834h-10.7
	v-16.2c0-1.4-0.3-2.6-1-3.4c-0.7-0.8-1.7-1.2-3-1.2c-0.8,0-1.6,0.2-2.2,0.6c-0.6,0.4-1.1,1-1.4,1.6c-0.3,0.7-0.5,1.5-0.5,2.4V834
	h-10.7L990.6,805.2L990.6,805.2z M1030.3,832.8c-2.2-1.2-4-2.9-5.2-5.2c-1.2-2.2-1.8-4.9-1.8-8v0c0-3.1,0.6-5.8,1.8-8
	c1.2-2.2,2.9-4,5.1-5.2s4.8-1.8,7.8-1.8s5.6,0.6,7.8,1.8c2.2,1.2,3.9,2.8,5.1,5c1.2,2.2,1.8,4.7,1.8,7.6v3h-24.2v-6h19.2l-4.9,5.7
	v-4.1c0-1.2-0.2-2.2-0.6-3c-0.4-0.8-0.9-1.5-1.6-1.9c-0.7-0.4-1.5-0.7-2.4-0.7s-1.7,0.2-2.4,0.7c-0.7,0.4-1.2,1.1-1.6,1.9
	s-0.6,1.8-0.6,3v4.2c0,1.2,0.2,2.2,0.6,3s0.9,1.5,1.6,1.9c0.7,0.4,1.6,0.7,2.6,0.7c0.9,0,1.7-0.2,2.3-0.5c0.6-0.3,1.1-0.7,1.5-1.1
	c0.4-0.4,0.6-0.7,0.7-1l0-0.1h9.5l-0.1,0.3c-0.2,0.9-0.6,2-1.2,3.1c-0.6,1.1-1.4,2.2-2.5,3.2s-2.5,1.8-4.2,2.5c-1.7,0.6-3.8,1-6.3,1
	C1035.2,834.6,1032.5,834,1030.3,832.8z M1061.2,832.5c-1.8-1.4-2.6-3.8-2.6-7.2v-12.4h-3.8v-7.7h3.8v-6.3h10.7v6.3h5.1v7.7h-5.1
	v10.7c0,1.2,0.3,2,0.8,2.5c0.5,0.5,1.3,0.8,2.4,0.8c0.4,0,0.7,0,1,0l0.8-0.1v7.5c-0.6,0.1-1.3,0.2-2.1,0.3c-0.8,0.1-1.8,0.1-2.9,0.1
	C1065.6,834.6,1062.9,833.9,1061.2,832.5L1061.2,832.5z M822.1,839.5c-26.5,0-48.1-21.6-48.1-48.1s21.6-48.1,48.1-48.1
	s48.1,21.6,48.1,48.1S848.6,839.5,822.1,839.5z M822.1,749.2c-23.2,0-42.1,18.9-42.1,42.1s18.9,42.1,42.1,42.1s42.1-18.9,42.1-42.1
	S845.3,749.2,822.1,749.2z" style="cursor: pointer;"></path><path class="st3" d="M796.27 814.29c-2.88 0-5.22-2.34-5.22-5.22s2.34-5.22 5.22-5.22 5.22 2.34 5.22 5.22-2.34 5.22-5.22 5.22zm0-6.45c-.67 0-1.22.55-1.22 1.22s.55 1.22 1.22 1.22 1.22-.55 1.22-1.22-.55-1.22-1.22-1.22zM841.41 801.39c-2.88 0-5.22-2.34-5.22-5.22s2.34-5.22 5.22-5.22 5.22 2.34 5.22 5.22-2.34 5.22-5.22 5.22zm0-6.45c-.67 0-1.22.55-1.22 1.22s.55 1.22 1.22 1.22 1.22-.55 1.22-1.22-.54-1.22-1.22-1.22z"></path><circle class="st3" cx="796.27" cy="809.07" r="3.22"></circle><circle class="st3" cx="841.41" cy="796.17" r="3.22"></circle><path class="st3" d="M824.48 782.05c-5.99 0-10.87-4.88-10.87-10.87 0-5.99 4.88-10.87 10.87-10.87s10.87 4.88 10.87 10.87c0 5.99-4.87 10.87-10.87 10.87zm0-17.74c-3.79 0-6.87 3.08-6.87 6.87s3.08 6.87 6.87 6.87 6.87-3.08 6.87-6.87-3.08-6.87-6.87-6.87z"></path><path class="st3" d="M864.7 841.07c-4.9 0-11.31-2.15-19.03-6.42-11.53-6.38-24.84-16.83-37.48-29.43l.63-.63-.63.63c-12.6-12.64-23.05-25.96-29.43-37.49-6.91-12.49-8.27-21.58-3.95-26.32.77-1.2 2.23-2.58 4.97-3.12 6.09-1.21 16.37 2.48 23.92 8.57l2.33 1.88-3.77 4.67-2.33-1.88c-6.62-5.34-15.16-8.11-18.99-7.36-.57.11-.99.31-1.1.51l-.21.38-.3.3c-4.67 4.67 5.66 28.08 33.1 55.61 27.42 27.33 50.76 37.69 55.56 33.15.83-1.62-.62-9.61-5.56-20.61l-1.23-2.74 5.47-2.46 1.23 2.74c3.66 8.16 9.1 22.54 4.39 27.26-1.85 1.85-4.4 2.76-7.59 2.76zm3.26-6.9z" style="cursor: pointer;"></path><circle class="st3" cx="820.05" cy="812.29" r="13.3" style="cursor: pointer;"></circle></svg>