<svg xmlns="http://www.w3.org/2000/svg" id="vis_t2" x="0" y="0" version="1.1" viewBox="0 0 1280 1024" style="enable-background:new 0 0 1280 1024" xml:space="preserve"><style>#vis_t2 .st12{fill:#555;fill:var(--c-text1)}#vis_t2 .st11{fill:#ccc;fill:var(--c-text8, var(--c-text5, var(--c-text3, var(--c-text1))))}#vis_t2 .st7{fill:#bb3e04;fill:var(--c9, var(--c7, var(--c5, var(--c4, var(--c1)))))}</style><path d="M237.85 433.2c-12.59-1.14-24.88-2.26-37.6-3.42-.12 1.69-.3 3.03-.31 4.37-.66 68.5-1.31 137-1.95 205.51-.18 18.82-.32 37.64-.46 56.46-.03 4.16-1.46 6.18-5.55 6.71-15.76 2.04-31.52 4.06-47.3 5.83-6.15.69-8.49-1.8-8.46-8.11.71-132.33 1.43-264.67 2.13-397 .11-20.22.12-40.45.21-60.67.03-7.21 4.09-10.29 11.01-7.99 15.07 5 30.09 10.15 45.08 15.38 5.54 1.93 7.09 4.39 7.03 10.27-.36 35.42-.7 70.84-1.19 106.26-.04 3.06.87 4.27 3.82 4.86 10.65 2.13 21.25 4.5 31.87 6.76.67.14 1.36.14 2.35.24.1-1.15.25-2.15.26-3.15.5-29.92.99-59.84 1.48-89.77.02-1.52-.03-3.05.13-4.55.48-4.43 2.57-6.21 7.02-5.73 2.29.25 4.62.7 6.77 1.5 16.08 6 32.12 12.11 48.18 18.19 4.33 1.64 5.38 3.17 5.27 9.06-.36 19.28-.88 38.57-1.28 57.85-1.26 60.89-2.48 121.78-3.76 182.67-.97 46.4-2 92.8-3.05 139.19-.19 8.32-2.57 10.7-11.03 11.73-15.14 1.84-30.32 1.73-45.5.75-7.56-.49-9.87-3.25-9.7-10.72.49-21.85.96-43.7 1.35-65.56 1.08-60.43 2.12-120.86 3.17-181.28.04-1.72.01-3.45.01-5.64z" class="st1" style="fill:var(--c2, var(--c1));cursor:pointer"/><path d="M970.54 612.24c0-7.01-.26-14.04.06-21.04.41-9.12 2.99-12.14 12.06-13.39 16.66-2.3 33.36-4.3 50.08-6.17 7.04-.79 10.18 1.97 10.04 9.17-.15 8.15-1.28 16.29-1.69 24.44-.22 4.4-.2 8.88.37 13.24.76 5.83 4.68 9.7 8.69 9.44 3.71-.25 7.36-4.59 7.2-10.29-.17-5.75-.54-11.91-2.69-17.12-6.15-14.87-12.94-29.5-20.03-43.94-18.63-37.91-35.39-76.55-46.83-117.29-10.15-36.16-11.31-72.6-1.89-109.1 5.15-19.94 15.74-36.52 31.85-49.54 21.48-17.36 45.43-20.78 71.97-14.73 25.87 5.9 44.41 20.31 57.71 42.93 7.71 13.11 11.84 27.37 16.31 41.61.71 2.28.74 4.86.61 7.28-.23 4.52-2.58 7.9-6.95 9.14-16.73 4.75-33.5 9.4-50.31 13.86-5.26 1.39-9.4-.83-12.03-5.59-4.18-7.57-8.16-15.25-12.51-22.71-1.74-2.98-3.99-5.78-6.45-8.2-3.05-2.99-4.62-2.9-7.92-.2-6.8 5.57-9.63 13.1-9.9 21.61-.4 12.75 2.98 24.84 7.89 36.39 8.37 19.66 17.55 38.98 25.9 58.64 8.94 21.06 17.89 42.14 25.77 63.6 6.41 17.43 7.58 36.07 9.34 54.44 2.09 21.78 1.08 43.46-3.84 64.82-3.46 15.01-9.61 28.96-20.15 40.33-12.22 13.19-28.28 19.98-45.33 24.5-12.64 3.35-25.39 3.53-38.16.44-21.69-5.24-34.75-19.91-42.16-39.89-6.77-18.21-7.82-37.41-7.01-56.68z" class="st2" style="fill:var(--c7, var(--c4, var(--c2, var(--c1))));cursor:pointer"/><path d="M604.36 515.9c1.24.65 1.91 1.05 2.62 1.38 28.14 13.26 44.1 35.42 48.57 66.11 3.28 22.48 1.8 45.02 1.21 67.56-.31 11.8-.53 23.61-.75 35.41-.13 7.09-1.73 8.86-8.7 9.57-9.07.93-18.11 2.12-27.2 2.76-5.69.4-11.44.17-17.14-.1-5.27-.25-7.85-2.98-7.84-8.37.03-14.49.01-28.99.46-43.48.72-23.44-.52-46.73-4.73-69.8-1.66-9.11-5.45-17.36-12.44-23.83-5.32-4.92-11.59-7.19-18.81-7.31-3.07-.05-4.22.72-4.25 4.08-.28 39.51-.72 79.02-1.13 118.53-.08 7.6-.19 15.2-.34 22.79-.11 5.5-2.23 7.19-7.7 6.83-15.63-1.05-31.26-1.97-46.89-2.96-1.74-.11-3.52-.15-5.21-.54-5.14-1.18-6.8-3.45-6.63-8.68 1.3-39.95 2.57-79.91 3.89-119.86 1.87-56.66 3.75-113.32 5.65-169.98.35-10.4.8-20.79 1.17-31.19.24-6.78 3.46-10.18 10.31-10.7 16.89-1.28 33.79-2.48 50.67-3.8 13.48-1.05 26.82-.12 40.17 1.92 16.94 2.58 30.43 11.22 42.53 22.76 12.07 11.51 20.77 24.85 23.79 41.53 1.93 10.65 1.48 21.25-1.07 31.66-4.54 18.54-12.24 35.57-25.9 49.32-8.09 8.15-18.34 12.75-29.01 16.48-1.59.59-3.18 1.16-5.3 1.91zm-47.35-49.18c5.1-1.56 10.05-2.88 14.86-4.58 9.03-3.19 18.26-6.21 25.39-12.92 2.93-2.76 5.99-6.37 6.91-10.1 2.53-10.26-3.29-21.11-12.96-25.23-10.77-4.58-22.38-3.61-34.21-4.79.01 19.32.01 38.17.01 57.62z" class="st3" style="fill:var(--c4, var(--c2, var(--c1)));cursor:pointer"/><path d="M898.96 407.13c9.5-.95 19.13-1.99 28.76-2.85 8.03-.72 16.07-1.37 24.11-1.77 6.01-.3 8.84 2.34 9.42 8.35.28 2.9.41 5.84.4 8.75-.04 11.45-.1 22.91-.26 34.36-.16 10.88-1.77 12.86-12.31 15.28-17.19 3.94-34.38 7.87-51.6 11.66-2.48.55-3.39 1.42-3.53 4.07-1.68 30.92-3.76 61.82-5.19 92.75-.84 18.09-.66 36.22-1.07 54.34-.06 2.79 1.62 3.04 3.49 3.25 8.94.99 17.87 2.02 26.83 2.84 11.75 1.08 23.51 1.93 35.26 2.99 5.31.48 7.95 3.43 7.74 9.32-.18 5.11-.98 10.22-1.75 15.3-1.29 8.54-2.77 17.06-4.2 25.58-.17 1.03-.47 2.05-.74 3.06-2.63 9.59-5.16 11.97-15.06 12.5-10.02.54-20.09.99-30.12.64-26.04-.89-52.07-2.17-78.09-3.45-5.82-.29-11.65-.97-17.38-1.98-6.22-1.09-8.5-3.62-8.75-9.96-.29-7.57-.34-15.19.17-22.74 3.35-49.07 7.15-98.11 10.28-147.19 2.1-32.88 3.18-65.83 5.02-98.73.82-14.57 2.61-29.09 3.58-43.66.86-12.94 1.15-25.91 1.81-38.86.41-7.97 2.4-10.5 9.88-12.9 26.72-8.57 53.98-15.01 81.39-20.87 10.73-2.29 21.42-4.8 32.13-7.21 8.61-1.94 12 .03 13.07 8.68 1.64 13.31 2.75 26.68 4.1 40.02.72 7.13-2.22 11.87-8.96 14.4-18.03 6.78-35.99 13.75-54.07 20.38-3.26 1.2-4.64 2.59-4.45 6.16.32 5.66.09 11.37.09 17.49z" class="st4" style="fill:var(--c8, var(--c5, var(--c3, var(--c1))));cursor:pointer"/><path d="M411.55 386.61c-.4 9.45-.78 18.63-1.18 28.18 1.6.07 2.84.12 4.09.18 16.22.77 32.44 1.48 48.65 2.35 5.98.32 9 3.25 9.15 9.81.26 10.72.02 21.45-.3 32.17-.12 4.06-.95 8.11-1.61 12.14-.58 3.49-2.75 5.67-6.24 6.22-2.52.4-5.1.62-7.65.61-15.19-.1-30.39-.29-45.58-.43-.92-.01-1.84.1-3.26.19-2.01 46.97-4.02 93.84-6.05 140.98 1.37.12 2.38.28 3.39.29 18.82.06 37.63.12 56.45.15 5.81.01 9.41 2.43 10.12 8.48 1.05 8.9 1.31 17.9 1.8 26.87.43 7.91.53 15.84 1.13 23.74.63 8.3-2.3 12.24-10.81 12.22-18.93-.05-37.86-.57-56.79-.84-22.79-.32-45.58-.55-68.37-.88-3.14-.05-6.37-.03-9.39-.75-5.96-1.41-8-4.86-7.75-12.68.56-17.29 1.23-34.57 1.89-51.86 1.05-27.45 2.17-54.89 3.2-82.33 1.23-32.82 2.35-65.64 3.6-98.46 1.36-35.73 2.83-71.47 4.2-107.2.18-4.66.08-9.33.1-13.99.02-7.66 3.82-11.11 11.3-9.93 39.52 6.23 78.25 15.89 116.63 27.06 5.72 1.66 11.5 3.1 17.19 4.84 7.99 2.43 12.18 7.82 11.58 16.17-.75 10.36-2.03 20.69-3.51 30.97-.85 5.9-3.49 7.28-9.38 6.31-21.55-3.55-43.11-7.05-64.67-10.56-.46-.08-.93-.02-1.93-.02z" class="st5" style="fill:var(--c3, var(--c2, var(--c1)));cursor:pointer"/><path d="M804.74 474.93c-.34 56.24-9.26 102.36-25.88 146.97-5.49 14.73-13.03 28.54-23.87 40.13-4.51 4.82-9.7 9.2-15.2 12.86-13.11 8.72-27.37 7.46-38.77-3.46-4.24-4.06-8.06-8.88-10.92-13.99-14.83-26.5-23.95-54.93-27.45-85.13-2.07-17.87-1.26-35.7.65-53.52 3.13-29.33 8.13-58.28 16.77-86.55 5.27-17.25 11.64-34.03 20.26-49.9 6.72-12.37 15.9-22.09 29.34-27.38 12.54-4.93 24.25-3.33 35.46 3.71 11.86 7.45 19 18.73 25.04 30.9 6.7 13.52 9.49 28.09 11.02 42.88 1.73 16.95 2.85 33.97 3.55 42.48zm-53.76 1.53c-.27-5.81-.1-12.76-1.05-19.55-1.17-8.39-2.76-16.8-5.13-24.92-1.82-6.26-4.87-6.54-8.2-.86-3.87 6.6-7.63 13.48-10.01 20.71-13.05 39.62-17.79 80.37-14.66 121.93.6 7.9 3.06 15.76 5.43 23.39 1.45 4.65 4.16 4.88 6.81.71 3.48-5.48 6.88-11.19 9.13-17.25 12.39-33.21 16.47-67.9 17.68-104.16z" class="st6" style="fill:var(--c5, var(--c3, var(--c1)));cursor:pointer"/><path d="M994.43 898.44c-6.81.24-11.27 2.66-15.59 5.58-6.57 4.45-12.9 9.4-19.91 13.02-15.01 7.76-29.84 5.52-44.19-2.44-3.26-1.81-6.75-3.24-9.94-5.16-10.49-6.33-20.69-5.01-30.84.8-4.15 2.38-8.33 4.73-12.61 6.87-15.35 7.68-30.41 7.26-44.95-2.09-5.7-3.66-11.17-7.67-16.8-11.44-1.44-.97-3.05-1.71-4.62-2.48-6.16-3.02-12.06-2.84-17.89 1.11-7.61 5.16-15.86 8.86-24.96 10.66-12.76 2.51-24.87.94-36.31-5.31-5.63-3.08-11.2-6.27-16.83-9.35-6.4-3.5-12.41-3.33-18.74.83-8.92 5.86-18.53 10.39-29.27 12.02-12.34 1.88-23.58-1.68-34.52-6.79-2.85-1.33-5.76-2.62-8.41-4.29-5.03-3.17-6.51-8.77-3.92-13.7 2.52-4.79 8.21-6.7 13.62-4.46 2.59 1.07 5.16 2.21 7.61 3.55 13.35 7.3 26.4 6.45 39.25-1.24 2-1.2 4.08-2.3 6.01-3.6 12.17-8.16 24.66-7.5 37.24-1.25 5.22 2.6 10.32 5.47 15.3 8.5 12.76 7.75 25.37 6.41 37.94-.33 2.98-1.6 5.83-3.45 8.78-5.12 13.33-7.54 26.2-4.84 38.59 2.24 5.87 3.35 11.36 7.39 16.83 11.38 8.96 6.53 18.15 7.26 27.89 1.89 5.62-3.1 11.28-6.13 17.05-8.93 14.03-6.81 27.99-6.18 41.8.81 5.73 2.9 11.45 5.83 17.23 8.62 7.63 3.68 15.23 3.38 22.42-1.04 4.87-2.99 9.57-6.29 14.15-9.71 16.42-12.27 33.47-13 51.14-3.02 3.76 2.12 7.35 4.54 10.99 6.88 9.96 6.4 17.96 6.19 27.59-.64 3.62-2.57 7.23-5.19 11.08-7.36 10.17-5.74 20.62-6.05 31.26-1.14 4.34 2 8.77 3.82 13.22 5.57 6.2 2.43 9.2 7.55 7.52 13.13-1.75 5.78-7.33 8.74-13.75 6.7-5.21-1.66-10.31-3.79-15.24-6.15-5.2-2.48-9.91-2.08-14.54 1.09-2.8 1.91-5.56 3.88-8.34 5.8-15.74 10.9-31.83 11.53-48.31 1.71-5.31-3.16-10.55-6.47-16.04-9.27-2.84-1.46-6.19-1.92-7.99-2.45zM649.16 720.78c12.45.52 23.6 3.27 33.51 10.27 9.21 6.5 22.33 6.52 31.98.29 2.06-1.33 4.04-2.79 5.97-4.3 13.78-10.81 28.57-11.01 43.8-3.82 4.91 2.32 9.17 6 13.96 8.63 3.84 2.11 7.88 4.14 12.09 5.17 6.3 1.54 12.13-.72 16.96-4.76 15.52-13.01 31.55-10.88 47.89-1.98 5.72 3.12 11.12 6.74 17.85 7.75 7.02 1.05 13.05-.36 18.75-4.64 9.06-6.79 19.04-10.86 30.73-8.81 7.56 1.32 14.66 3.83 21.26 7.74 2.11 1.25 4.2 2.53 6.31 3.78 9.7 5.77 18.8 5.03 28.1-1.49 5.1-3.58 10.48-7.37 16.32-9.2 12.96-4.05 24.52.88 35.36 7.81 1.77 1.13 3.4 2.47 5.13 3.68 7.81 5.45 15.55 5.76 23.52.48 6.86-4.54 13.75-8.82 21.98-10.45 7.66-1.51 15.23-1.35 22.27 2.11 3 1.48 5.81 3.96 7.83 6.64 2.78 3.69 1.84 8.94-1.32 12.25-3.05 3.2-8.14 4.43-11.89 1.98-7.84-5.12-14.92-2.65-21.97 1.42-3.74 2.15-7.21 4.82-11.07 6.7-13.71 6.66-26.96 5.01-39.65-2.9-3.27-2.04-6.28-4.49-9.59-6.45-9.02-5.33-14.56-5.01-22.81 1.37-6.57 5.08-13.61 8.82-21.95 10.26-11.58 2-21.99-.62-31.78-6.69-2.68-1.66-5.36-3.34-8.16-4.77-9.07-4.62-17.9-5.51-26.49 1.42-8.43 6.81-18.18 9.91-29.05 9.04-9.23-.74-17.73-3.65-25.76-8.33-4.39-2.55-9.16-4.56-13.96-6.26-5-1.78-9.51-.32-13.69 3.03-9.25 7.41-19.63 11.64-31.77 10.41-8.95-.91-16.97-4.22-24.1-9.6-5.08-3.83-10.29-7.26-16.61-8.71-5.48-1.27-10.45-.37-14.84 3.16-7.56 6.09-15.83 10.57-25.45 12.65-13.75 2.96-26.36 1.08-37.94-7.29-8.71-6.3-18.59-7.73-29.02-5.67-4.51.89-7.86 3.4-10 7.52-.43.83-.93 1.62-1.47 2.39-3.32 4.72-8.75 6.21-13.53 3.74-4.88-2.53-6.96-8.14-4.58-13.52 3.14-7.11 7.84-13.03 14.85-16.73 7.03-3.71 14.6-5.43 22.03-5.32z" style="cursor:pointer"/><path d="M679.41 770.32c11.33 0 22.67.02 34-.01 5.45-.01 7.07 1.56 7.32 6.99.36 7.7.95 15.39 1.21 23.09.21 6.24-1.07 7.52-7.17 7.62-15.88.27-31.77.2-47.64.8-10.12.38-20.22 1.61-30.3 2.71-1.38.15-2.6 1.76-3.89 2.69 1.27 1.03 2.43 2.75 3.82 2.96 8.75 1.32 17.52 2.75 26.33 3.29 17.02 1.05 34.07 1.55 51.11 2.22 3.07.12 4.93 1.52 5.14 4.57.23 3.35.36 6.74.15 10.09-.31 4.89-.95 9.75-1.47 14.63-.31 2.96-2 4.79-4.9 5.1-9.37.99-18.78 2.71-28.15 2.57-19.37-.3-38.74-1.4-58.07-2.67-6.1-.4-12.2-2.06-18.13-3.74-6.86-1.94-11.75-6.59-14.9-12.96-8.93-18.01-7.59-35.74 2.06-52.96 5.78-10.3 16.09-13.99 26.82-14.89 18.82-1.59 37.74-1.92 56.62-2.79.01.23.03.46.04.69zM867.63 765.36c15.78-.08 31.3 1.8 46.57 5.47 9.05 2.18 16.87 6.71 23.05 13.84 6.32 7.31 8.46 15.54 6.4 25.08-2.89 13.4-10.05 23.04-22.92 28.42-12.63 5.29-25.97 7.53-39.32 9.75-5.07.84-10.16 1.57-15.27 2.07-2.17.21-2.7 1.16-2.82 3.08-.19 3.01-.44 6.04-.98 9-.43 2.33-2.1 3.67-4.55 3.48-8.72-.69-17.44-1.38-26.15-2.24-3.55-.35-5.19-2.41-5.08-6.2.67-23.01 2.1-45.95 5.31-68.76.44-3.12 1.1-6.28.94-9.38-.2-3.96 1.44-7.03 3.7-9.84.82-1.02 2.53-1.7 3.9-1.81 9.06-.77 18.14-1.34 27.22-1.96zm-2.34 53.97c14.77-.66 28.83-2.3 42.48-6.65 1.41-.45 2.74-1.35 3.92-2.28 4.04-3.18 4.07-7.91-.23-10.59-2.61-1.63-5.65-3.03-8.66-3.48-11.95-1.81-23.96-1.01-36.3-.08-.4 7.57-.79 14.99-1.21 23.08zM1064.28 827.19c6.76-.31 13.54-.42 20.27-1 4.86-.42 7.78-2.65 7.88-5.16.1-2.59-2.46-4.76-7.48-5.66-7.8-1.41-15.76-2.12-23.46-3.95-5.37-1.28-10.75-3.35-15.52-6.11-11.09-6.4-15.03-26.51 1.12-34.78 9.15-4.69 18.93-6.48 28.83-8.14 14.85-2.48 29.78-2.17 44.74-1.44 2.91.14 4.96 1.39 5.08 4.22.31 7.33.44 14.68.23 22.01-.08 2.83-2.49 3.98-5.28 4.05-8.64.22-17.28.44-25.92.72-2.33.08-4.67.26-6.97.61-.78.12-1.45.91-2.18 1.4.52.71.92 1.89 1.57 2.04 3.61.85 7.25 1.66 10.92 2.1 8.8 1.07 17.14 3.25 24.66 8.25 10.13 6.74 13.5 17.6 11.34 28.84-3.16 16.48-14.16 25.42-30.08 28.92-11.32 2.48-22.76 2.12-34.19 1.15-7.44-.63-14.86-1.54-22.27-2.51-6.09-.8-7.61-2.8-7.32-8.84.35-7.35.81-14.7.97-22.06.08-3.43 1.63-5 4.85-5.04 6.07-.07 12.14-.02 18.21-.02-.01.13 0 .26 0 .4z" class="st7" style="cursor:pointer"/><path d="M984.58 828.35v5.49c1.26.12 2.48.29 3.7.34 11.09.39 22.18.74 33.27 1.15 8.66.32 10.35 2.21 9.7 10.95-.27 3.61-.8 7.19-1.14 10.8-.27 2.78-1.81 4.3-4.52 4.4-2.79.1-5.6-.09-8.4-.12-20.8-.25-41.6-.51-62.39-.74-5.49-.06-7.46-1.8-7.25-7.36.28-7.47.81-14.93 1.44-22.37 1.44-16.86 3.08-33.7 4.5-50.56.56-6.64 1.52-7.78 9.1-8.04 17.51-.6 35.03-1.06 52.54-1.61 4.2-.13 8.4-.43 12.6-.59 4.37-.17 5.79 1.12 5.86 5.4.1 5.49.24 10.98.06 16.46-.15 4.54-1.75 5.88-6.29 6.24-11.88.94-23.75 1.85-35.61 2.94-1.75.16-3.41 1.24-5.12 1.9 1.73.47 3.46 1.31 5.2 1.33 10.51.15 21.03.07 31.55.16 6.72.06 7.54.9 7.41 7.47-.08 3.97-.41 7.93-.61 11.9-.12 2.37-1.38 3.71-3.7 3.86-3.96.27-7.93.55-11.9.59-9.89.06-19.79.01-30 .01zM782.26 833.88c-4.58.31-8.87.46-13.12 1-.86.11-1.86 1.56-2.23 2.59-2.06 5.71-4.04 11.45-5.87 17.23-.98 3.09-3.09 4.48-6.07 5.06-9.54 1.84-19.08 1.15-28.6-.02-4.08-.5-5.81-3.64-4.02-7.88 4.05-9.56 8.22-19.1 12.86-28.38 7.84-15.66 16.13-31.1 24.15-46.67 1.62-3.14 3.86-4.61 7.47-4.7 6.53-.15 13.05-.91 19.59-.97 3.44-.04 7.13.26 10.25 1.53 1.98.8 3.78 3.45 4.53 5.65 6.29 18.45 12.3 37 18.42 55.5 1.61 4.88 3.28 9.73 4.96 14.59 2.28 6.62.81 9.12-6.05 9.3-8.97.24-17.95.33-26.92.07-6.53-.19-8.09-2.07-8.42-8.63-.18-3.5-.19-7.01-.35-10.51-.06-1.38-.33-2.76-.58-4.76zM779 804.46c-.26-.06-.51-.12-.77-.17-.66 1.8-1.31 3.6-2.1 5.77 1.39-.08 2.36-.14 3.64-.21-.29-2-.53-3.69-.77-5.39z" class="st7" style="cursor:pointer"/><path d="M772.19 170.55c2.5-4.34 4.68-8.58 7.31-12.52 1.17-1.75 3.01-3.38 4.92-4.24 5.11-2.31 9.38 1.04 9.18 6.61-.26 7.2-3.09 13.62-5.76 20.08-4.15 10.04-8.67 19.92-12.59 30.04-1.62 4.17-2.53 8.73-2.97 13.19-.39 3.93 1.96 5.28 5.63 3.73 6.62-2.79 11.67-7.67 16.47-12.82.57-.61.87-1.69.89-2.56.46-18.31 5.5-35.49 13.3-51.87a628.616 628.616 0 0 1 17.77-34.55c2.45-4.41 5.91-8.47 9.62-11.91 4.3-3.99 9.84-5.69 15.6-3.32 5.65 2.32 7.97 7.22 8.45 13.11.66 8.05-.42 15.89-3.47 23.35-7.41 18.15-17.65 34.76-28.33 51.09-3.83 5.86-8 11.51-12.23 17.1-1.41 1.87-1.29 3.11.01 4.88 4.7 6.43 14.36 9.14 21.62 5.91.11-.05.21-.11.31-.16 7.59-3.62 13.64-7.29 13.53-17.92-.15-14.81 6.73-28.22 12.62-41.59 6.72-15.24 14.57-29.86 25.91-42.22 3.67-4 8.03-7.47 12.49-10.59 5.23-3.66 11.09-3.23 16.71-.64 3.75 1.72 5.2 5.2 5.88 9.02 1.17 6.54-.24 12.8-2.45 18.9-5.25 14.49-13.2 27.58-21.4 40.51-9.41 14.85-20.05 28.74-32.86 40.89-.85.81-1.07 2.64-1.02 3.97.06 1.47.84 2.9 1.21 4.37 2.09 8.49 10.25 12.75 18.61 9.86 4.84-1.68 9.68-4.34 13.53-7.7 6.59-5.73 12.34-12.41 18.57-18.57 2.31-2.28 4.8-4.46 7.52-6.21 2.85-1.83 6.09-1.84 8.81.47 2.63 2.24 2.72 5.52 1.22 8.05-3.85 6.49-7.66 13.14-12.52 18.84-7.74 9.1-16.46 17.29-28.25 21.19-14.45 4.77-27.04 1.1-37.8-8.97-3.1-2.9-4.88-7.21-7.45-11.15-2.82 1.5-6.07 3.55-9.56 5.02-4.61 1.94-9.29 4.03-14.15 4.95-8.71 1.66-16.07-1.57-21.97-8.1-1.47-1.63-2.8-3.4-4.36-5.31-2.04 1.69-3.87 3.47-5.97 4.87-3.19 2.13-6.4 4.35-9.88 5.9-13.8 6.15-27.03-4.74-28.24-15.91-.07-.66-.32-1.31-.5-2.03-3.76 3.57-7.24 7.13-10.99 10.37-6.83 5.89-14.47 10.18-23.61 11.46-10.37 1.46-19.43-3.22-23.76-12.77-4.22-9.29-3.75-18.96-1.39-28.51 5.05-20.45 16.12-36.88 33.87-48.49 5.75-3.76 12.1-6.02 19.12-6 10.33.04 17.77 5.2 21.38 14.96.48 1.3.94 2.59 1.42 3.94zm-63.15 49.46c.69 2.94 1.07 6.36 2.3 9.43 1.8 4.5 5.1 6.16 9.57 4.36 4.34-1.75 8.84-3.94 12.25-7.05 11.68-10.65 18.86-24.2 22.84-39.36 1.01-3.83 1.02-8.13.56-12.1-.89-7.69-4.2-9.56-11.49-7.22-1.33.43-2.68.9-3.87 1.6-19.06 11.23-29.06 28.25-32.16 50.34zm106.72-33.57c.33.14.67.27 1 .41 6.37-11.64 13.12-23.1 18.99-34.99 3.69-7.48 6.11-15.59 8.97-23.47.4-1.11.06-2.5.06-4.16-8.17 4.94-28.08 48.36-29.02 62.21zm57.69 7.31c13.21-20.8 26.59-41.51 34.8-65-16 19.31-26.48 41.58-34.8 65z" class="st8" style="fill:var(--c10, var(--c8, var(--c6, var(--c4, var(--c2, var(--c1))))));cursor:pointer"/><path d="M792.95 261.6c21.42-.47 42.72 1.04 63.9 4.11 8.53 1.24 17.02 2.88 25.46 4.69 5.76 1.23 11.09 3.65 15.4 7.88 2.72 2.68 4.04 5.92 2.63 9.54-1.36 3.51-4.68 4.71-8.09 4.26-6.68-.87-13.44-1.71-19.92-3.47-13.73-3.72-27.71-5.48-41.83-6.35-13.63-.84-27.31-2.34-40.92-1.88-18.4.62-36.77 2.68-55.12 4.43-8.12.78-16.16 2.39-24.25 3.47-2.05.27-4.2.11-6.27-.11-3.36-.36-6.13-1.68-6.79-5.45-.72-4.13.92-8.11 4.76-9.57 4.77-1.81 9.75-3.27 14.76-4.24 25.19-4.89 50.65-6.98 76.28-7.31zM211.8 119.47c.22-3.33 1.32-5.61 4.59-6.07 3.09-.44 5.32 1.24 6.22 4.84 2.14 8.61 4.11 17.26 6.29 25.87 7.89 31.16 19.81 60.56 38.33 87.04.8 1.14 1.61 2.34 2.09 3.63.95 2.55.51 4.93-1.88 6.49-2.34 1.54-4.72 1.17-6.74-.69-.93-.85-1.62-1.98-2.36-3.03-19.73-28.12-32.29-59.38-40.59-92.51-1.79-7.14-3.49-14.29-5.19-21.45-.35-1.47-.55-2.97-.76-4.12zM238.67 237.98c-1.25 1.65-2.06 3.77-3.46 4.29-1.69.63-4.3.54-5.77-.4-2.29-1.46-4.03-3.84-5.88-5.93-20.86-23.61-35.28-50.9-45.81-80.41-.82-2.31-1.87-4.53-2.63-6.86-1.1-3.38.05-6.31 2.74-7.43 2.75-1.15 5.6 0 7.2 3.23 1.28 2.61 2.31 5.35 3.29 8.09 10.62 29.78 25.61 56.98 47.09 80.41 1.21 1.31 1.97 3.03 3.23 5.01zM260.52 140.29c0-3.74-.01-7.48.01-11.22.01-1.05.02-2.11.19-3.14.61-3.81 2.79-5.83 5.95-5.6 3.13.22 4.98 2.58 4.98 6.45 0 3.97-.16 7.94-.08 11.9.54 27.17 6.33 53.23 16.57 78.35 1.39 3.4.61 6.26-1.99 7.64-2.7 1.43-6.19.49-7.62-2.81-2.6-5.98-4.88-12.12-6.92-18.31-6.79-20.53-10.42-41.64-11.09-63.26zM156.88 188.11c.98.82 3.03 2 4.33 3.74 7.56 10.12 15.44 19.94 25.07 28.19 4.25 3.64 8.73 7.01 13.11 10.5.73.58 1.52 1.09 2.22 1.71 2.58 2.26 3.17 5.41 1.48 7.78-1.7 2.39-5 3.04-7.79.96-6.07-4.53-12.52-8.78-17.74-14.18-8.89-9.2-17.01-19.15-25.31-28.9-1.04-1.22-1.64-3.13-1.75-4.76-.19-2.84 2.33-5.07 6.38-5.04zM1069.42 146.48c-.8 2.68-1.78 6.65-3.18 10.47-9.44 25.91-22.29 50.11-37.27 73.2-4.39 6.76-8.93 13.42-13.45 20.09-2.45 3.61-5.47 4.6-8.23 2.81-2.87-1.87-3.22-5.2-.82-8.97 8.41-13.19 17.27-26.12 25.2-39.6 11.16-18.95 20.65-38.74 26.94-59.92.17-.56.29-1.15.55-1.66 1.31-2.59 3.38-3.96 6.28-3.21 2.71.69 4.01 2.66 3.98 6.79zM1040.13 258.09c-1.78-1.55-4.07-2.59-4.37-4.04-.41-1.97.07-4.78 1.31-6.3 3.91-4.78 8.47-9.01 12.58-13.64 20.2-22.75 37.2-47.64 50.08-75.26.2-.42.38-.86.58-1.28 1.96-4.09 4.89-5.64 7.97-4.19 3.02 1.42 3.83 4.68 1.97 8.8-11.02 24.29-25.32 46.54-42.2 67.12-7.1 8.65-14.86 16.77-22.45 25.01-1.35 1.44-3.32 2.31-5.47 3.78zM1133.58 197.82c-1 2.12-1.56 3.65-2.39 5.01-7.66 12.62-18.02 22.94-28.73 32.85-7.87 7.28-16.38 13.86-24.63 20.72-.89.74-1.88 1.44-2.94 1.87-2.64 1.09-5.12.8-6.81-1.73-1.55-2.33-1.24-4.71.65-6.72 1.03-1.09 2.29-1.98 3.51-2.88 16.62-12.27 31.4-26.47 44.48-42.44 2.36-2.88 4.19-6.18 6.45-9.15 1.62-2.13 4.01-3.28 6.47-1.87 1.61.94 2.64 2.86 3.94 4.34zM1004.28 185.87c-1.26 12.9-5.02 25.14-9.84 37.08-2.7 6.71-5.47 13.4-8.62 19.91-.89 1.83-3.03 3.69-4.97 4.24-3.44.98-6.37-2.57-5.5-6.42.53-2.36 1.66-4.59 2.64-6.83 5.98-13.58 11.63-27.27 14.42-41.94.52-2.74.84-5.54 1.07-8.32.36-4.29 2.37-6.63 5.76-6.48 3.23.15 5.09 2.56 5.12 6.67.02.69-.05 1.39-.08 2.09zM1103.36 267.05c-1.3-1.01-3.6-1.9-4.03-3.35-.54-1.8-.13-4.48.96-6.02 1.49-2.12 4.02-3.49 6.06-5.25 3.98-3.43 7.98-6.84 11.86-10.37 2.92-2.66 6.12-3.14 8.42-.99 2.36 2.21 2.51 5.73-.4 8.37-6.14 5.56-12.58 10.79-18.97 16.06-.85.69-2.12.86-3.9 1.55z" style="cursor:pointer"/><path d="M379.58 276c-4.97 2.43-9.52 5.07-14.36 6.96-19.2 7.48-47.79-3.52-51.01-28.81-1.74-13.68 2.21-25.92 10.04-36.97 2.88-4.07 6.44-7.66 9.79-11.58-3.41-2.72-7.05-5.44-10.49-8.39-6.39-5.48-11.89-11.71-13.81-20.19-2.86-12.65 1.37-23.49 9.23-33.18 12.55-15.48 28.93-16.76 46.76-12.34 1.24.31 2.45.74 3.68 1.1.09.03.22-.04.75-.16.39-1.05.82-2.34 1.34-3.59 6.1-14.71 14.76-27.33 29.16-35.11 18.91-10.21 47.57-5.94 62.58 9.3 1.86 1.89 3.42 4.09 5.33 6.4 11.78-11.32 24.18-21.97 41.63-21.78 16.49.18 31.48 5.05 43.21 18.23 17.36-18.75 37.67-20.69 59.29-8.7 14.66 8.13 25.43 19.53 23.49 38.65 19.02 6.23 33.46 17.64 36.59 38.79 3.13 21.15-7.31 36.01-25.19 47.46 1.88 1.6 3.68 2.89 5.19 4.45 12.79 13.28 13.26 43.79-14.75 51.84-10.39 2.98-20.73 3-31.09-.07-1.09-.32-2.19-.65-2.73-.81-2.97 5.48-5.17 11.13-8.72 15.75-8.16 10.63-19.71 13.55-32.55 12.23-11.83-1.22-21.97-6.03-30.15-14.79-.31-.33-.72-.57-1.36-1.08-9.16 12.71-20.85 20.9-37.21 19.65-15.41-1.17-28.14-7.93-38.51-19.99-10.56 14.29-24.74 18.66-41.51 15.2-16.48-3.39-28.27-12.75-34.62-28.47z" class="st9" style="fill:var(--c1);cursor:pointer"/><path d="M572.42 802.68c-.58-.75-1.81-1.02-2.76-1.44-11.31-5.02-22.86-9.58-33.9-15.14-17.3-8.71-34.79-17.25-51.26-27.38-22.46-13.82-40.76-32.68-58.19-52.33-3.48-3.92-7.12-7.73-10.95-11.31-2.36-2.2-5.44-2.83-8.47-1.21-2.97 1.59-4.84 4.06-4.76 7.6.06 2.57.35 5.13.46 7.69.52 12.1 1.01 24.19 1.53 36.59-1.86 0-2.55.04-3.24-.01-27.64-1.68-55.27-4.25-82.93-4.85-50.72-1.1-101.46-1.09-152.19-1.38-9.1-.05-18.22.52-27.31 1.16-7.03.5-12.05 4.14-14.37 11-2.29 6.75-.04 12.38 4.56 17.31 1.39 1.49 2.98 2.78 4.6 4.26-4.71 3.9-8.13 8.28-8.65 14.25-.55 6.3 2.92 10.77 7.48 14.52-8.9 8.59-11.23 15.61-2.16 23.52-2.6 2.91-5.33 5.78-7.85 8.83-6.65 8.04-7.23 18.13 3.99 23.47.1.05.18.15.21.19-1.69 2.53-3.65 4.88-4.96 7.56-3.34 6.82-1.03 13.37 5.76 16.8 1.76.89 3.66 1.82 5.57 2.02 7.06.74 14.17 1.81 21.24 1.65 30.61-.73 61.23-1.55 91.82-2.89 48.57-2.13 97.12-4.69 145.68-7.07 1.36-.07 2.72-.14 4.41-.23-.31 5.12-.54 9.87-.9 14.61-1.02 13.28-2.12 26.55-3.15 39.83-.25 3.2.21 6.17 3.6 7.64 3.23 1.4 5.95.2 8.32-2 4.7-4.38 9.58-8.61 13.97-13.28 18.51-19.73 38-38.29 60.22-53.92 23.24-16.35 46.47-32.63 72.48-44.45 7.33-3.33 14.57-6.9 21.64-10.75 1.78-.97 3.7-3.41 3.78-5.25.07-1.83-1.96-3.87-3.32-5.61z" class="st10" style="fill:var(--c6, var(--c4, var(--c2, var(--c1))));cursor:pointer"/><path d="M247.5 772.07c-3.44-.03-5.26 2.31-5.59 6.65-.78 10.48-1.45 20.98-2.62 31.42-.93 8.38-2.72 16.63-7.37 23.91-1.76 2.76-3.66 6.01-7.33 5.82-3.91-.21-6.18-3.5-7.25-6.85-2.01-6.31-3.62-12.76-5-19.24-.89-4.2-.83-8.6-1.67-12.82-.54-2.7-2.65-4.41-5.57-4.51-2.97-.1-4.77 1.56-5.69 4.28-.3.88-.54 1.79-.79 2.68-2.3 8.08-4.14 16.34-7.08 24.18-1.67 4.44-4.84 8.45-7.9 12.2-2.34 2.86-5.48 2.58-7.23-.67-1.89-3.52-3.85-7.53-3.95-11.38-.36-13.29.06-26.61.23-39.91.03-2.8.39-5.61.29-8.4-.11-2.82-1.9-4.52-4.64-4.89-2.76-.37-4.76.99-5.8 3.54-.43 1.07-.72 2.26-.75 3.41-.34 15.41-.89 30.82-.78 46.23.05 6.57 2.14 12.92 6.35 18.26 6.76 8.57 15.9 9.31 24.02 2.03 5.72-5.13 9.22-11.67 12.11-19.61.75 2.16 1.05 3.55 1.69 4.75 2.07 3.89 3.75 8.16 6.53 11.48 7.36 8.77 18 9.19 25.47.57 4.01-4.64 7.29-10.42 9.25-16.24 5.49-16.33 6.3-33.44 6.59-50.52.07-4-2.23-6.34-5.52-6.37zM310.73 831.82c-9.23.06-18.45.13-27.68.18-1 0-1.99-.13-3.31-.22.86-6.85 1.6-13.33 2.51-19.8.82-5.79.91-5.73 6.72-5.92 5.95-.19 11.91-.37 17.85-.8 3.29-.24 5.33-2.58 5.34-5.45.02-2.98-1.98-5.08-5.28-5.43-1.04-.11-2.1 0-3.15 0h-19.06c.49-3.45 1.14-6.99 1.46-10.57.25-2.73 1.35-3.69 4.17-3.71 7.24-.04 14.48-.35 21.7-.75 3.3-.18 5.36-2.46 5.39-5.35.03-3.06-2.13-5.24-5.58-5.55-.93-.08-1.87-.02-2.8.01-6.89.21-13.78.43-20.67.66-9.15.3-11.96 2.86-13.15 11.91-.81 6.13-1.73 12.25-2.53 18.39-1.48 11.34-2.98 22.69-4.35 34.05-.77 6.38 1.5 9.73 6.94 9.79 12.03.12 24.07.01 36.1-.2 4.2-.08 6.67-2.54 6.59-5.8-.08-3.39-2.82-5.47-7.21-5.44zM375.66 802.02c-1.52-8.61-3.61-17.11-5.66-25.62-.66-2.75-2.52-4.7-5.61-5.06-3.19-.37-5.4 1.06-6.95 3.71-.88 1.51-1.75 3.04-2.49 4.62-5.13 11-10.29 21.99-15.31 33.04-3.91 8.61-7.74 17.25-11.38 25.98-1.51 3.63-.14 6.78 2.83 7.97 3 1.2 5.86-.27 7.48-3.87 1.91-4.26 4.21-8.4 5.59-12.83 2.14-6.85 5.6-10.85 13.36-8.46 1.64 0 3.3.2 4.9-.04 3.69-.55 5.07.86 5.44 4.61.54 5.44 1.48 10.9 2.96 16.16.49 1.75 3.05 3.79 4.87 4.02 1.6.21 3.97-1.58 5.12-3.14.85-1.15.56-3.39.31-5.07-1.72-12.03-3.35-24.07-5.46-36.02zM352.98 810c3-6.44 5.77-12.4 8.54-18.35.31 0 .62.01.93.01 1.05 6.02 2.1 12.03 3.19 18.34h-12.66zM479.03 795.6c5.21-12.94-.47-23.24-14.24-25.6-13.3-2.28-26.72-2.52-40.16-1.85-5.6.28-11.19.75-16.77 1.21-5.97.49-7.79 2.33-8.3 8.22-.09 1.04-.04 2.1-.08 3.15-.44 13.18-.85 26.36-1.33 39.54-.24 6.65-.75 13.29-.88 19.95-.06 3.27 2.2 5.48 5.07 5.67 2.95.2 5.16-1.61 5.76-4.92.31-1.72.4-3.48.5-5.22.2-3.38.36-6.76.47-10.15.06-1.8.68-2.72 2.71-2.73 5.25-.02 10.51-.41 15.76-.35 14.87.16 27.95 4.82 38.52 15.65a20.78 20.78 0 0 0 3.52 2.88c2.94 1.91 5.97 1.54 7.86-.82 1.92-2.4 1.61-5.41-.99-7.81-2.91-2.69-5.76-5.52-8.97-7.81-4.5-3.22-9.32-6.01-14.21-9.13 1.71-.58 3.44-1.14 5.15-1.75 9.28-3.29 16.79-8.65 20.61-18.13zm-68.36 14.71v-29.77c3.56-.33 6.68-.9 9.78-.85 13.3.21 26.6.61 39.89.95.23.01.46.06.7.09 8.86 1.1 11.19 4.77 5.88 13.81-2.74 4.67-7.42 6.98-12.41 8.61-14.11 4.62-28.77 5.86-43.84 7.16z" class="st11" style="cursor:pointer"/><path d="M457.19 145.54c-2.64 0-4.54 1.32-5.13 3.91-.46 2.03-.64 4.15-.71 6.24-.82 23.47-1.58 46.95-2.38 70.42-.09 2.63-.34 5.25-.56 8.59-.92-1.18-1.43-1.76-1.85-2.4-9.81-14.94-19.6-29.89-29.4-44.84-6.59-10.06-13.18-20.14-19.78-30.2-1.59-2.43-3.7-3.97-6.75-3.28-3.02.68-4.9 2.58-5.45 5.69-.18 1.03-.38 2.07-.53 3.11-3.21 23.49-6.42 46.98-9.61 70.47-.69 5.09-1.41 10.18-1.91 15.29-.25 2.59.55 5.31 3.3 5.88 1.86.39 4.3-.27 5.97-1.3 1.09-.67 1.58-2.79 1.8-4.34 2.39-16.88 4.67-33.78 6.99-50.67l3.34-24.48c1.08 1.5 1.57 2.13 2 2.8 14.4 21.99 28.79 43.98 43.19 65.97 2.37 3.62 4.61 7.33 7.22 10.77 2.05 2.7 5.1 3.83 8.44 2.82 2.99-.91 3.83-3.48 3.93-6.37 1.13-31.88 2.28-63.76 3.4-95.65.05-1.39.08-2.85-.25-4.18-.66-2.64-2.43-4.26-5.27-4.25zM491.53 153.6c-22.15 20.47-28.03 60.75-12.65 86.71 14.52 24.49 41.64 27.49 60.94 6.48 12.72-13.85 17.51-30.79 17.97-46.86-.32-17.72-3.5-29.29-10.43-39.6-13.41-19.96-37.62-23.56-55.83-6.73zm39.51 86.19c-12.77 14.15-30.81 12.86-41.04-3.15-2.72-4.26-4.78-9.13-6.15-14-1.53-5.45-1.92-11.21-2.81-16.84.81-14.38 4.37-27.65 13.46-38.88 2.95-3.64 6.72-6.92 10.72-9.35 10.06-6.1 21.53-4.02 29.44 4.79 7.51 8.36 10.81 18.49 11.58 29.43 1.26 17.93-2.87 34.33-15.2 48zM630.84 144.96c-.69-.08-1.4-.08-2.1-.08-18.47.01-36.93.01-55.4.06-1.26 0-2.57.22-3.78.6-2.46.76-3.96 2.41-4.01 5.12-.04 2.87 1.52 4.67 4.14 5.37 1.65.44 3.45.45 5.19.46 8.04.04 16.08.02 24.48.02.06.87.15 1.44.13 2-.92 19.73-1.84 39.46-2.78 59.18-.51 10.86-1.1 21.71-1.53 32.57-.17 4.38 2.03 7.11 5.43 7.21 3.44.1 5.6-2.4 5.92-6.85.03-.47.03-.93.05-1.4 1.23-26.73 2.46-53.47 3.71-80.2.2-4.18.51-8.35.78-12.71 1.29-.08 2.32-.17 3.35-.19 5.49-.1 10.99-.05 16.47-.31 3.3-.16 5.27-2.44 5.26-5.43 0-2.96-2.05-5.06-5.31-5.42z" class="st12" style="cursor:pointer"/></svg>