<svg xmlns="http://www.w3.org/2000/svg" xmlns:xlink="http://www.w3.org/1999/xlink" width="200" zoomAndPan="magnify" viewBox="0 0 150 149.999998" height="200" preserveAspectRatio="xMidYMid meet" version="1.0"><defs><g/><clipPath id="221e2150e5"><rect x="0" width="77" y="0" height="108"/></clipPath><clipPath id="8616cb8f7f"><rect x="0" width="34" y="0" height="17"/></clipPath><clipPath id="5ffb49777c"><rect x="0" width="76" y="0" height="109"/></clipPath></defs><rect x="-15" width="180" fill="#ffffff" y="-15" height="179.999997" fill-opacity="1"/><rect x="-15" width="180" fill="#ffffff" y="-15" height="179.999997" fill-opacity="1"/><g transform="matrix(1, 0, 0, 1, 64, 30)"><g clip-path="url(#221e2150e5)"><g fill="#5e17eb" fill-opacity="0.4"><g transform="translate(4.524685, 83.461797)"><g><path d="M 8.71875 -59.21875 L 35.703125 -59.21875 C 41.898438 -59.21875 47.28125 -58.398438 51.84375 -56.765625 C 56.414062 -55.128906 60.113281 -52.363281 62.9375 -48.46875 C 65.757812 -44.582031 67.171875 -39.734375 67.171875 -33.921875 L 67.171875 -25.296875 C 67.171875 -16.273438 64.125 -9.703125 58.03125 -5.578125 C 52.445312 -1.859375 45.003906 0 35.703125 0 L 8.71875 0 C 8.09375 0 7.550781 -0.222656 7.09375 -0.671875 C 6.644531 -1.128906 6.421875 -1.664062 6.421875 -2.28125 L 6.421875 -56.9375 C 6.421875 -57.550781 6.644531 -58.082031 7.09375 -58.53125 C 7.550781 -58.988281 8.09375 -59.21875 8.71875 -59.21875 Z M 28.421875 -42.71875 L 28.421875 -16.5 L 36.125 -16.5 C 38.769531 -16.5 40.867188 -17.128906 42.421875 -18.390625 C 43.972656 -19.660156 44.75 -21.453125 44.75 -23.765625 L 44.75 -35.4375 C 44.75 -37.75 43.972656 -39.539062 42.421875 -40.8125 C 40.867188 -42.082031 38.769531 -42.71875 36.125 -42.71875 Z M 28.421875 -42.71875 "/></g></g></g><g fill="#5e17eb" fill-opacity="1"><g transform="translate(0.785334, 79.722443)"><g><path d="M 8.71875 -59.21875 L 35.703125 -59.21875 C 41.898438 -59.21875 47.28125 -58.398438 51.84375 -56.765625 C 56.414062 -55.128906 60.113281 -52.363281 62.9375 -48.46875 C 65.757812 -44.582031 67.171875 -39.734375 67.171875 -33.921875 L 67.171875 -25.296875 C 67.171875 -16.273438 64.125 -9.703125 58.03125 -5.578125 C 52.445312 -1.859375 45.003906 0 35.703125 0 L 8.71875 0 C 8.09375 0 7.550781 -0.222656 7.09375 -0.671875 C 6.644531 -1.128906 6.421875 -1.664062 6.421875 -2.28125 L 6.421875 -56.9375 C 6.421875 -57.550781 6.644531 -58.082031 7.09375 -58.53125 C 7.550781 -58.988281 8.09375 -59.21875 8.71875 -59.21875 Z M 28.421875 -42.71875 L 28.421875 -16.5 L 36.125 -16.5 C 38.769531 -16.5 40.867188 -17.128906 42.421875 -18.390625 C 43.972656 -19.660156 44.75 -21.453125 44.75 -23.765625 L 44.75 -35.4375 C 44.75 -37.75 43.972656 -39.539062 42.421875 -40.8125 C 40.867188 -42.082031 38.769531 -42.71875 36.125 -42.71875 Z M 28.421875 -42.71875 "/></g></g></g></g></g><g transform="matrix(1, 0, 0, 1, 84, 94)"><g clip-path="url(#8616cb8f7f)"><g fill="#f4f4f4" fill-opacity="1"><g transform="translate(0.762031, 12.130158)"><g><path d="M 1.921875 -8.78125 L 6.609375 -8.78125 C 7.796875 -8.78125 8.734375 -8.488281 9.421875 -7.90625 C 10.117188 -7.332031 10.46875 -6.59375 10.46875 -5.6875 C 10.46875 -4.789062 10.175781 -4.078125 9.59375 -3.546875 C 9.007812 -3.015625 8.015625 -2.75 6.609375 -2.75 L 4.953125 -2.75 L 4.953125 -0.34375 C 4.953125 -0.25 4.914062 -0.164062 4.84375 -0.09375 C 4.78125 -0.03125 4.707031 0 4.625 0 L 1.921875 0 C 1.828125 0 1.742188 -0.03125 1.671875 -0.09375 C 1.609375 -0.164062 1.578125 -0.25 1.578125 -0.34375 L 1.578125 -8.4375 C 1.578125 -8.53125 1.609375 -8.609375 1.671875 -8.671875 C 1.742188 -8.742188 1.828125 -8.78125 1.921875 -8.78125 Z M 4.96875 -6.453125 L 4.96875 -5.0625 L 6.5625 -5.0625 C 6.75 -5.0625 6.90625 -5.117188 7.03125 -5.234375 C 7.15625 -5.359375 7.21875 -5.523438 7.21875 -5.734375 C 7.21875 -5.941406 7.15625 -6.113281 7.03125 -6.25 C 6.914062 -6.382812 6.757812 -6.453125 6.5625 -6.453125 Z M 4.96875 -6.453125 "/></g></g></g><g fill="#f4f4f4" fill-opacity="1"><g transform="translate(11.424188, 12.130158)"><g><path d="M 10.3125 -0.390625 C 10.332031 -0.359375 10.34375 -0.3125 10.34375 -0.25 C 10.34375 -0.1875 10.3125 -0.128906 10.25 -0.078125 C 10.195312 -0.0234375 10.132812 0 10.0625 0 L 7.21875 0 C 6.96875 0 6.789062 -0.101562 6.6875 -0.3125 L 5.578125 -2.796875 L 4.53125 -2.796875 L 4.53125 -0.34375 C 4.53125 -0.25 4.492188 -0.164062 4.421875 -0.09375 C 4.359375 -0.03125 4.28125 0 4.1875 0 L 1.484375 0 C 1.390625 0 1.304688 -0.03125 1.234375 -0.09375 C 1.171875 -0.164062 1.140625 -0.25 1.140625 -0.34375 L 1.140625 -8.4375 C 1.140625 -8.53125 1.171875 -8.609375 1.234375 -8.671875 C 1.304688 -8.742188 1.390625 -8.78125 1.484375 -8.78125 L 6.359375 -8.78125 C 7.503906 -8.78125 8.410156 -8.507812 9.078125 -7.96875 C 9.753906 -7.425781 10.09375 -6.6875 10.09375 -5.75 C 10.09375 -4.613281 9.648438 -3.789062 8.765625 -3.28125 Z M 4.53125 -6.453125 L 4.53125 -5.125 L 6.09375 -5.125 C 6.28125 -5.125 6.421875 -5.179688 6.515625 -5.296875 C 6.617188 -5.421875 6.671875 -5.570312 6.671875 -5.75 C 6.671875 -5.9375 6.625 -6.097656 6.53125 -6.234375 C 6.4375 -6.378906 6.289062 -6.453125 6.09375 -6.453125 Z M 4.53125 -6.453125 "/></g></g></g><g fill="#f4f4f4" fill-opacity="1"><g transform="translate(22.086345, 12.130158)"><g><path d="M 10 -5.15625 L 10 -3.625 C 10 -2.757812 9.789062 -2.039062 9.375 -1.46875 C 8.957031 -0.894531 8.410156 -0.484375 7.734375 -0.234375 C 7.054688 0.00390625 6.253906 0.125 5.328125 0.125 C 4.410156 0.125 3.613281 0.00390625 2.9375 -0.234375 C 2.257812 -0.484375 1.710938 -0.894531 1.296875 -1.46875 C 0.878906 -2.039062 0.671875 -2.769531 0.671875 -3.65625 L 0.671875 -5.125 C 0.671875 -6.394531 1.101562 -7.34375 1.96875 -7.96875 C 2.832031 -8.59375 3.953125 -8.90625 5.328125 -8.90625 C 6.710938 -8.90625 7.835938 -8.59375 8.703125 -7.96875 C 9.566406 -7.34375 10 -6.40625 10 -5.15625 Z M 4.046875 -5.390625 L 4.046875 -3.390625 C 4.046875 -3.046875 4.160156 -2.78125 4.390625 -2.59375 C 4.628906 -2.414062 4.941406 -2.328125 5.328125 -2.328125 C 5.722656 -2.328125 6.035156 -2.421875 6.265625 -2.609375 C 6.492188 -2.796875 6.609375 -3.0625 6.609375 -3.40625 L 6.609375 -5.375 C 6.609375 -5.71875 6.492188 -5.984375 6.265625 -6.171875 C 6.035156 -6.367188 5.722656 -6.46875 5.328125 -6.46875 C 4.941406 -6.46875 4.628906 -6.375 4.390625 -6.1875 C 4.160156 -6 4.046875 -5.734375 4.046875 -5.390625 Z M 4.046875 -5.390625 "/></g></g></g></g></g><g transform="matrix(1, 0, 0, 1, 13, 17)"><g clip-path="url(#5ffb49777c)"><g fill="#5e17eb" fill-opacity="0.4"><g transform="translate(4.004848, 83.868272)"><g><path d="M 50.671875 -59.21875 L 66.15625 -59.21875 C 66.769531 -59.21875 67.300781 -58.988281 67.75 -58.53125 C 68.207031 -58.082031 68.4375 -57.550781 68.4375 -56.9375 L 68.4375 -2.28125 C 68.4375 -1.664062 68.207031 -1.128906 67.75 -0.671875 C 67.300781 -0.222656 66.769531 0 66.15625 0 L 50.84375 0 C 50.21875 0 49.679688 -0.222656 49.234375 -0.671875 C 48.785156 -1.128906 48.5625 -1.664062 48.5625 -2.28125 L 48.5625 -28.515625 L 42.375 -16.328125 C 42.039062 -15.648438 41.535156 -15.128906 40.859375 -14.765625 C 40.179688 -14.398438 39.503906 -14.21875 38.828125 -14.21875 L 33.078125 -14.21875 C 32.117188 -14.21875 31.328125 -14.46875 30.703125 -14.96875 C 30.085938 -15.476562 29.691406 -15.929688 29.515625 -16.328125 L 23.34375 -28.515625 L 23.34375 -2.28125 C 23.34375 -1.664062 23.117188 -1.128906 22.671875 -0.671875 C 22.222656 -0.222656 21.6875 0 21.0625 0 L 5.75 0 C 5.132812 0 4.597656 -0.222656 4.140625 -0.671875 C 3.691406 -1.128906 3.46875 -1.664062 3.46875 -2.28125 L 3.46875 -56.9375 C 3.46875 -57.550781 3.691406 -58.082031 4.140625 -58.53125 C 4.597656 -58.988281 5.132812 -59.21875 5.75 -59.21875 L 21.234375 -59.21875 C 22.816406 -59.21875 24.03125 -58.457031 24.875 -56.9375 L 35.953125 -36.625 L 47.03125 -56.9375 C 47.875 -58.457031 49.085938 -59.21875 50.671875 -59.21875 Z M 50.671875 -59.21875 "/></g></g></g><g fill="#5e17eb" fill-opacity="1"><g transform="translate(0.265493, 80.128917)"><g><path d="M 50.671875 -59.21875 L 66.15625 -59.21875 C 66.769531 -59.21875 67.300781 -58.988281 67.75 -58.53125 C 68.207031 -58.082031 68.4375 -57.550781 68.4375 -56.9375 L 68.4375 -2.28125 C 68.4375 -1.664062 68.207031 -1.128906 67.75 -0.671875 C 67.300781 -0.222656 66.769531 0 66.15625 0 L 50.84375 0 C 50.21875 0 49.679688 -0.222656 49.234375 -0.671875 C 48.785156 -1.128906 48.5625 -1.664062 48.5625 -2.28125 L 48.5625 -28.515625 L 42.375 -16.328125 C 42.039062 -15.648438 41.535156 -15.128906 40.859375 -14.765625 C 40.179688 -14.398438 39.503906 -14.21875 38.828125 -14.21875 L 33.078125 -14.21875 C 32.117188 -14.21875 31.328125 -14.46875 30.703125 -14.96875 C 30.085938 -15.476562 29.691406 -15.929688 29.515625 -16.328125 L 23.34375 -28.515625 L 23.34375 -2.28125 C 23.34375 -1.664062 23.117188 -1.128906 22.671875 -0.671875 C 22.222656 -0.222656 21.6875 0 21.0625 0 L 5.75 0 C 5.132812 0 4.597656 -0.222656 4.140625 -0.671875 C 3.691406 -1.128906 3.46875 -1.664062 3.46875 -2.28125 L 3.46875 -56.9375 C 3.46875 -57.550781 3.691406 -58.082031 4.140625 -58.53125 C 4.597656 -58.988281 5.132812 -59.21875 5.75 -59.21875 L 21.234375 -59.21875 C 22.816406 -59.21875 24.03125 -58.457031 24.875 -56.9375 L 35.953125 -36.625 L 47.03125 -56.9375 C 47.875 -58.457031 49.085938 -59.21875 50.671875 -59.21875 Z M 50.671875 -59.21875 "/></g></g></g></g></g></svg>